<svg width="42" height="41" viewBox="0 0 42 41" fill="none" xmlns="http://www.w3.org/2000/svg">
<path d="M26.8827 37.6738L26.8806 37.6703L18.3323 23.7794L14.356 26.0061L21.9858 40.4119L26.8827 37.6738ZM27.2984 14.4352L19.722 0.029295L14.878 2.81985L14.8806 2.82406L23.4287 16.7146L27.2984 14.4352ZM12.7296 17.4674L3.87276 31.1795L8.77014 34.054H8.8054L16.653 19.8002L12.7296 17.4674ZM38.9134 23.7193L22.6398 24.1995L22.5338 28.7056L38.9134 29.3992V23.751V23.7193ZM19.1209 11.7353L2.7406 11.0417L2.68752 16.6687H2.71944H2.71967L19.1209 16.2948V11.7353ZM29.0314 22.92L37.7817 9.1544L32.9514 6.28811L25.1616 20.6405L29.0314 22.92Z" fill="#BABABA" stroke="#BABABA" stroke-width="0.0422944"/>
</svg>
