<svg width="95" height="37" viewBox="0 0 95 37" fill="none" xmlns="http://www.w3.org/2000/svg">
<path d="M0.975862 13.7207V0.959359H9.51338V2.99039H2.03631L3.31245 1.67831V7.53774L2.03631 6.47729H9.18985V8.49035H2.03631L3.31245 7.4299V13.7207H0.975862ZM11.5733 13.7207V4.12273H13.7302L13.8201 6.78285L13.6223 6.7469C13.7661 5.82425 14.0357 5.15922 14.4312 4.75182C14.8386 4.33243 15.3898 4.12273 16.0847 4.12273H16.9655V6.09984H16.0668C15.5755 6.09984 15.1681 6.17174 14.8446 6.31553C14.521 6.45932 14.2754 6.68699 14.1076 6.99853C13.9519 7.29809 13.874 7.69351 13.874 8.1848V13.7207H11.5733ZM22.554 13.9364C21.5954 13.9364 20.7626 13.7327 20.0557 13.3253C19.3607 12.9059 18.8155 12.3188 18.4201 11.5639C18.0366 10.809 17.8449 9.92825 17.8449 8.92172C17.8449 7.91519 18.0366 7.04047 18.4201 6.29756C18.8155 5.54266 19.3607 4.95552 20.0557 4.53613C20.7507 4.11674 21.5655 3.90705 22.5001 3.90705C23.4227 3.90705 24.2256 4.11075 24.9086 4.51816C25.5916 4.92556 26.1188 5.5127 26.4903 6.27958C26.8737 7.04646 27.0654 7.96911 27.0654 9.04753V9.56877H20.2354C20.2833 10.4075 20.511 11.0426 20.9184 11.474C21.3378 11.8934 21.889 12.1031 22.572 12.1031C23.0872 12.1031 23.5126 11.9892 23.8481 11.7616C24.1956 11.5219 24.4353 11.1924 24.5671 10.773L26.9216 10.9168C26.67 11.8514 26.1548 12.5884 25.3759 13.1276C24.597 13.6668 23.6564 13.9364 22.554 13.9364ZM20.2354 8.02303H24.6749C24.627 7.24417 24.4053 6.66901 24.0099 6.29756C23.6145 5.91412 23.1112 5.7224 22.5001 5.7224C21.889 5.7224 21.3797 5.92011 20.9723 6.31553C20.5769 6.71095 20.3313 7.28012 20.2354 8.02303ZM32.8869 13.9364C31.9403 13.9364 31.1435 13.7986 30.4964 13.523C29.8494 13.2474 29.3521 12.864 29.0046 12.3727C28.6571 11.8814 28.4594 11.3242 28.4115 10.7011L30.766 10.5933C30.8499 11.0965 31.0596 11.486 31.3951 11.7616C31.7306 12.0372 32.2279 12.175 32.8869 12.175C33.4262 12.175 33.8455 12.0911 34.1451 11.9233C34.4566 11.7436 34.6124 11.468 34.6124 11.0965C34.6124 10.8809 34.5585 10.7011 34.4507 10.5573C34.3548 10.4135 34.1511 10.2877 33.8395 10.1799C33.54 10.072 33.0966 9.96419 32.5095 9.85635C31.5269 9.6886 30.7541 9.4849 30.1909 9.24525C29.6277 8.99361 29.2263 8.68207 28.9866 8.31061C28.759 7.93916 28.6451 7.47783 28.6451 6.92664C28.6451 6.02795 28.9866 5.30301 29.6696 4.75182C30.3646 4.18864 31.3771 3.90705 32.7072 3.90705C33.5699 3.90705 34.2949 4.05084 34.882 4.33842C35.4692 4.61402 35.9245 4.99746 36.248 5.48874C36.5835 5.96804 36.7992 6.51923 36.8951 7.14232L34.5585 7.25016C34.5106 6.92664 34.4027 6.64505 34.235 6.4054C34.0792 6.16575 33.8695 5.98601 33.6059 5.86619C33.3543 5.73438 33.0487 5.66848 32.6892 5.66848C32.138 5.66848 31.7246 5.77632 31.449 5.992C31.1734 6.20769 31.0356 6.49527 31.0356 6.85474C31.0356 7.10637 31.0956 7.31607 31.2154 7.48382C31.3472 7.65158 31.5569 7.78937 31.8445 7.89722C32.132 7.99308 32.5155 8.08295 32.9948 8.16682C34.0013 8.3226 34.7922 8.5263 35.3673 8.77793C35.9545 9.01758 36.3738 9.32912 36.6255 9.71256C36.8771 10.084 37.0029 10.5334 37.0029 11.0606C37.0029 11.6717 36.8292 12.1929 36.4817 12.6243C36.1342 13.0557 35.6489 13.3852 35.0258 13.6129C34.4147 13.8285 33.7018 13.9364 32.8869 13.9364ZM38.727 13.7207V0.959359H41.0276V6.31553H40.7401C40.8359 5.76433 41.0276 5.31499 41.3152 4.9675C41.6028 4.60803 41.9563 4.34441 42.3757 4.17666C42.7951 3.99692 43.2564 3.90705 43.7596 3.90705C44.4666 3.90705 45.0597 4.06282 45.539 4.37437C46.0303 4.67393 46.3958 5.09931 46.6354 5.6505C46.8871 6.2017 47.0129 6.83677 47.0129 7.55572V13.7207H44.7122V8.1129C44.7122 7.33404 44.5804 6.75289 44.3168 6.36945C44.0532 5.97403 43.6398 5.77632 43.0766 5.77632C42.4536 5.77632 41.9563 5.98002 41.5848 6.38742C41.2134 6.79483 41.0276 7.38796 41.0276 8.16682V13.7207H38.727ZM53.9492 13.7207V0.959359H62.4867V2.99039H55.0096L56.2858 1.67831V7.53774L55.0096 6.47729H62.1632V8.49035H55.0096L56.2858 7.4299V13.7207H53.9492ZM68.7525 13.9364C67.8059 13.9364 66.9791 13.7327 66.2721 13.3253C65.5652 12.9059 65.014 12.3188 64.6186 11.5639C64.2231 10.809 64.0254 9.92825 64.0254 8.92172C64.0254 7.90321 64.2231 7.0225 64.6186 6.27958C65.014 5.52469 65.5652 4.94353 66.2721 4.53613C66.9791 4.11674 67.8059 3.90705 68.7525 3.90705C69.6991 3.90705 70.5259 4.11674 71.2329 4.53613C71.9399 4.94353 72.4851 5.52469 72.8685 6.27958C73.2639 7.0225 73.4616 7.90321 73.4616 8.92172C73.4616 9.92825 73.2639 10.809 72.8685 11.5639C72.4851 12.3188 71.9399 12.9059 71.2329 13.3253C70.5259 13.7327 69.6991 13.9364 68.7525 13.9364ZM68.7525 12.0671C69.4954 12.0671 70.0706 11.7915 70.478 11.2403C70.8854 10.6891 71.0891 9.91626 71.0891 8.92172C71.0891 7.93916 70.8854 7.17228 70.478 6.62108C70.0706 6.05791 69.4954 5.77632 68.7525 5.77632C68.0096 5.77632 67.4344 6.05791 67.027 6.62108C66.6196 7.17228 66.4159 7.93916 66.4159 8.92172C66.4159 9.91626 66.6196 10.6891 67.027 11.2403C67.4344 11.7915 68.0096 12.0671 68.7525 12.0671ZM79.5473 13.9364C78.6007 13.9364 77.7739 13.7327 77.0669 13.3253C76.3599 12.9059 75.8088 12.3188 75.4133 11.5639C75.0179 10.809 74.8202 9.92825 74.8202 8.92172C74.8202 7.90321 75.0179 7.0225 75.4133 6.27958C75.8088 5.52469 76.3599 4.94353 77.0669 4.53613C77.7739 4.11674 78.6007 3.90705 79.5473 3.90705C80.4939 3.90705 81.3207 4.11674 82.0277 4.53613C82.7346 4.94353 83.2798 5.52469 83.6633 6.27958C84.0587 7.0225 84.2564 7.90321 84.2564 8.92172C84.2564 9.92825 84.0587 10.809 83.6633 11.5639C83.2798 12.3188 82.7346 12.9059 82.0277 13.3253C81.3207 13.7327 80.4939 13.9364 79.5473 13.9364ZM79.5473 12.0671C80.2902 12.0671 80.8654 11.7915 81.2728 11.2403C81.6802 10.6891 81.8839 9.91626 81.8839 8.92172C81.8839 7.93916 81.6802 7.17228 81.2728 6.62108C80.8654 6.05791 80.2902 5.77632 79.5473 5.77632C78.8044 5.77632 78.2292 6.05791 77.8218 6.62108C77.4144 7.17228 77.2107 7.93916 77.2107 8.92172C77.2107 9.91626 77.4144 10.6891 77.8218 11.2403C78.2292 11.7915 78.8044 12.0671 79.5473 12.0671ZM89.6051 13.9364C88.7783 13.9364 88.0654 13.7327 87.4663 13.3253C86.8791 12.9179 86.4238 12.3367 86.1002 11.5818C85.7767 10.8269 85.615 9.94023 85.615 8.92172C85.615 7.90321 85.7767 7.0165 86.1002 6.26161C86.4238 5.50671 86.8851 4.92556 87.4842 4.51816C88.0834 4.11075 88.7903 3.90705 89.6051 3.90705C90.2642 3.90705 90.8453 4.04485 91.3486 4.32045C91.8638 4.59604 92.2533 4.98547 92.5169 5.48874V0.959359H94.8175V13.7207H92.6427L92.5888 12.3008C92.3251 12.816 91.9297 13.2174 91.4025 13.505C90.8753 13.7926 90.2761 13.9364 89.6051 13.9364ZM90.2881 12.0671C90.7674 12.0671 91.1688 11.9473 91.4924 11.7076C91.8279 11.468 92.0795 11.1145 92.2473 10.6472C92.427 10.1679 92.5169 9.59274 92.5169 8.92172C92.5169 8.23872 92.427 7.66356 92.2473 7.19624C92.0795 6.72892 91.8279 6.37544 91.4924 6.13579C91.1688 5.89614 90.7674 5.77632 90.2881 5.77632C89.5931 5.77632 89.036 6.05791 88.6166 6.62108C88.2092 7.17228 88.0055 7.93916 88.0055 8.92172C88.0055 9.88032 88.2092 10.6472 88.6166 11.2224C89.036 11.7855 89.5931 12.0671 90.2881 12.0671ZM0.975862 33.7207V20.9594H9.51338V22.9904H2.03631L3.31245 21.6783V27.5377L2.03631 26.4773H9.18985V28.4903H2.03631L3.31245 27.4299V33.7207H0.975862ZM15.7612 33.9364C14.8026 33.9364 13.9698 33.7327 13.2629 33.3253C12.5679 32.9059 12.0227 32.3188 11.6273 31.5639C11.2438 30.809 11.0521 29.9282 11.0521 28.9217C11.0521 27.9152 11.2438 27.0405 11.6273 26.2976C12.0227 25.5427 12.5679 24.9555 13.2629 24.5361C13.9579 24.1167 14.7727 23.9071 15.7073 23.9071C16.6299 23.9071 17.4328 24.1108 18.1158 24.5182C18.7988 24.9256 19.326 25.5127 19.6975 26.2796C20.0809 27.0465 20.2726 27.9691 20.2726 29.0475V29.5688H13.4426C13.4905 30.4075 13.7182 31.0426 14.1256 31.474C14.545 31.8934 15.0962 32.1031 15.7792 32.1031C16.2944 32.1031 16.7198 31.9892 17.0553 31.7616C17.4028 31.5219 17.6425 31.1924 17.7743 30.773L20.1288 30.9168C19.8772 31.8514 19.362 32.5884 18.5831 33.1276C17.8042 33.6668 16.8636 33.9364 15.7612 33.9364ZM13.4426 28.023H17.8821C17.8342 27.2442 17.6125 26.669 17.2171 26.2976C16.8217 25.9141 16.3184 25.7224 15.7073 25.7224C15.0962 25.7224 14.5869 25.9201 14.1795 26.3155C13.7841 26.711 13.5385 27.2801 13.4426 28.023ZM26.3278 33.9364C25.3692 33.9364 24.5364 33.7327 23.8295 33.3253C23.1345 32.9059 22.5893 32.3188 22.1938 31.5639C21.8104 30.809 21.6187 29.9282 21.6187 28.9217C21.6187 27.9152 21.8104 27.0405 22.1938 26.2976C22.5893 25.5427 23.1345 24.9555 23.8295 24.5361C24.5244 24.1167 25.3392 23.9071 26.2739 23.9071C27.1965 23.9071 27.9994 24.1108 28.6824 24.5182C29.3654 24.9256 29.8926 25.5127 30.264 26.2796C30.6475 27.0465 30.8392 27.9691 30.8392 29.0475V29.5688H24.0092C24.0571 30.4075 24.2848 31.0426 24.6922 31.474C25.1116 31.8934 25.6628 32.1031 26.3458 32.1031C26.861 32.1031 27.2864 31.9892 27.6219 31.7616C27.9694 31.5219 28.209 31.1924 28.3409 30.773L30.6954 30.9168C30.4438 31.8514 29.9285 32.5884 29.1497 33.1276C28.3708 33.6668 27.4302 33.9364 26.3278 33.9364ZM24.0092 28.023H28.4487C28.4008 27.2442 28.1791 26.669 27.7837 26.2976C27.3882 25.9141 26.885 25.7224 26.2739 25.7224C25.6628 25.7224 25.1535 25.9201 24.7461 26.3155C24.3507 26.711 24.105 27.2801 24.0092 28.023ZM36.1754 33.9364C35.3486 33.9364 34.6357 33.7327 34.0366 33.3253C33.4494 32.9179 32.9941 32.3367 32.6706 31.5818C32.347 30.8269 32.1853 29.9402 32.1853 28.9217C32.1853 27.9032 32.347 27.0165 32.6706 26.2616C32.9941 25.5067 33.4554 24.9256 34.0545 24.5182C34.6537 24.1108 35.3606 23.9071 36.1754 23.9071C36.8345 23.9071 37.4156 24.0448 37.9189 24.3204C38.4341 24.596 38.8236 24.9855 39.0872 25.4887V20.9594H41.3878V33.7207H39.213L39.1591 32.3008C38.8955 32.816 38.5 33.2174 37.9728 33.505C37.4456 33.7926 36.8464 33.9364 36.1754 33.9364ZM36.8584 32.0671C37.3377 32.0671 37.7391 31.9473 38.0627 31.7076C38.3982 31.468 38.6498 31.1145 38.8176 30.6472C38.9973 30.1679 39.0872 29.5927 39.0872 28.9217C39.0872 28.2387 38.9973 27.6636 38.8176 27.1962C38.6498 26.7289 38.3982 26.3754 38.0627 26.1358C37.7391 25.8961 37.3377 25.7763 36.8584 25.7763C36.1634 25.7763 35.6063 26.0579 35.1869 26.6211C34.7795 27.1723 34.5758 27.9392 34.5758 28.9217C34.5758 29.8803 34.7795 30.6472 35.1869 31.2224C35.6063 31.7855 36.1634 32.0671 36.8584 32.0671ZM43.4837 33.7207V24.1227H45.7844V33.7207H43.4837ZM43.4478 22.8466V20.7976H45.8383V22.8466H43.4478ZM48.0825 33.7207V24.1227H50.1674L50.2573 26.8188L49.9877 26.711C50.0835 26.0399 50.2812 25.5007 50.5808 25.0933C50.8804 24.6859 51.2458 24.3863 51.6772 24.1946C52.1086 24.0029 52.5819 23.9071 53.0971 23.9071C53.8041 23.9071 54.3972 24.0628 54.8765 24.3744C55.3678 24.6859 55.7393 25.1173 55.9909 25.6685C56.2425 26.2077 56.3683 26.8368 56.3683 27.5557V33.7207H54.0677V28.2926C54.0677 27.7534 54.0138 27.2981 53.9059 26.9266C53.7981 26.5552 53.6184 26.2736 53.3667 26.0819C53.1271 25.8782 52.8036 25.7763 52.3962 25.7763C51.785 25.7763 51.2938 25.992 50.9223 26.4234C50.5628 26.8547 50.3831 27.4778 50.3831 28.2926V33.7207H48.0825ZM62.783 36.6324C61.9442 36.6324 61.2253 36.5186 60.6262 36.2909C60.027 36.0633 59.5417 35.7398 59.1703 35.3204C58.8108 34.913 58.5592 34.4397 58.4154 33.9004L60.7879 33.7387C60.9077 34.0982 61.1174 34.3797 61.417 34.5834C61.7166 34.7871 62.1719 34.889 62.783 34.889C63.5019 34.889 64.0471 34.7272 64.4186 34.4037C64.802 34.0922 64.9938 33.6009 64.9938 32.9299V31.7076C64.7661 32.175 64.4006 32.5524 63.8974 32.84C63.3941 33.1156 62.8309 33.2534 62.2078 33.2534C61.417 33.2534 60.71 33.0617 60.0869 32.6782C59.4758 32.2828 58.9965 31.7376 58.649 31.0426C58.3015 30.3357 58.1278 29.5208 58.1278 28.5982C58.1278 27.6755 58.3015 26.8667 58.649 26.1717C58.9965 25.4648 59.4698 24.9136 60.069 24.5182C60.6801 24.1108 61.381 23.9071 62.1719 23.9071C62.8669 23.9071 63.466 24.0628 63.9693 24.3744C64.4725 24.6859 64.838 25.0993 65.0657 25.6146V24.1227H67.3124V32.8759C67.3124 33.6907 67.1207 34.3797 66.7372 34.9429C66.3658 35.5061 65.8385 35.9255 65.1555 36.2011C64.4845 36.4887 63.6937 36.6324 62.783 36.6324ZM62.7471 31.456C63.442 31.456 63.9932 31.2044 64.4006 30.7011C64.808 30.1859 65.0117 29.4789 65.0117 28.5802C65.0237 27.9811 64.9339 27.4718 64.7421 27.0525C64.5624 26.6211 64.2988 26.2916 63.9513 26.0639C63.6158 25.8242 63.2144 25.7044 62.7471 25.7044C62.0401 25.7044 61.4889 25.968 61.0935 26.4953C60.71 27.0105 60.5183 27.7055 60.5183 28.5802C60.5183 29.4549 60.716 30.1559 61.1114 30.6831C61.5188 31.1984 62.064 31.456 62.7471 31.456Z" fill="#161616"/>
</svg>
