<svg width="164" height="46" viewBox="0 0 164 46" fill="none" xmlns="http://www.w3.org/2000/svg">
<rect x="1.25159" y="0.776253" width="161.497" height="43.7561" rx="21.8781" fill="#FBFBFB"/>
<rect x="1.25159" y="0.776253" width="161.497" height="43.7561" rx="21.8781" stroke="#E3E3E3" stroke-width="1.32594"/>
<path d="M18.3245 30.1543V15.0916H20.6157V29.3057L19.4065 28.054H27.9561V30.1543H18.3245ZM34.1907 30.4089C33.1158 30.4089 32.1753 30.1684 31.3691 29.6876C30.5629 29.2067 29.9336 28.5207 29.481 27.6297C29.0425 26.7387 28.8233 25.6991 28.8233 24.5111C28.8233 23.3089 29.0425 22.2694 29.481 21.3925C29.9336 20.5156 30.5629 19.8367 31.3691 19.3558C32.1753 18.8608 33.1158 18.6133 34.1907 18.6133C35.2656 18.6133 36.1991 18.8608 36.9911 19.3558C37.7973 19.8367 38.4196 20.5156 38.858 21.3925C39.3106 22.2694 39.5369 23.3089 39.5369 24.5111C39.5369 25.6991 39.3106 26.7387 38.858 27.6297C38.4196 28.5207 37.7973 29.2067 36.9911 29.6876C36.1991 30.1684 35.2656 30.4089 34.1907 30.4089ZM34.1907 28.4571C35.1383 28.4571 35.8738 28.1106 36.3971 27.4176C36.9345 26.7104 37.2033 25.7416 37.2033 24.5111C37.2033 23.2806 36.9345 22.3189 36.3971 21.6258C35.8738 20.9187 35.1383 20.5651 34.1907 20.5651C33.2431 20.5651 32.5006 20.9187 31.9631 21.6258C31.4257 22.3189 31.157 23.2806 31.157 24.5111C31.157 25.7416 31.4257 26.7104 31.9631 27.4176C32.5006 28.1106 33.2431 28.4571 34.1907 28.4571ZM46.43 30.4089C45.3551 30.4089 44.4146 30.1684 43.6084 29.6876C42.8022 29.2067 42.1728 28.5207 41.7203 27.6297C41.2818 26.7387 41.0626 25.6991 41.0626 24.5111C41.0626 23.3089 41.2818 22.2694 41.7203 21.3925C42.1728 20.5156 42.8022 19.8367 43.6084 19.3558C44.4146 18.8608 45.3551 18.6133 46.43 18.6133C47.5049 18.6133 48.4384 18.8608 49.2304 19.3558C50.0366 19.8367 50.6589 20.5156 51.0973 21.3925C51.5499 22.2694 51.7762 23.3089 51.7762 24.5111C51.7762 25.6991 51.5499 26.7387 51.0973 27.6297C50.6589 28.5207 50.0366 29.2067 49.2304 29.6876C48.4384 30.1684 47.5049 30.4089 46.43 30.4089ZM46.43 28.4571C47.3776 28.4571 48.1131 28.1106 48.6364 27.4176C49.1738 26.7104 49.4425 25.7416 49.4425 24.5111C49.4425 23.2806 49.1738 22.3189 48.6364 21.6258C48.1131 20.9187 47.3776 20.5651 46.43 20.5651C45.4824 20.5651 44.7399 20.9187 44.2024 21.6258C43.665 22.3189 43.3963 23.2806 43.3963 24.5111C43.3963 25.7416 43.665 26.7104 44.2024 27.4176C44.7399 28.1106 45.4824 28.4571 46.43 28.4571ZM58.3723 30.4089C57.3115 30.4089 56.4134 30.2462 55.678 29.9209C54.9566 29.5956 54.3909 29.1501 53.9808 28.5844C53.5847 28.0045 53.3584 27.3398 53.3019 26.5902L55.6355 26.4841C55.7345 27.1064 55.9962 27.6014 56.4205 27.9691C56.8589 28.3369 57.5095 28.5207 58.3723 28.5207C59.0653 28.5207 59.6169 28.4076 60.0271 28.1813C60.4514 27.955 60.6635 27.5943 60.6635 27.0993C60.6635 26.8306 60.5928 26.6043 60.4514 26.4204C60.3241 26.2224 60.0695 26.0598 59.6876 25.9325C59.3057 25.7911 58.7329 25.6567 57.9692 25.5294C56.8519 25.3173 55.975 25.0697 55.3385 24.7869C54.7021 24.504 54.2495 24.1434 53.9808 23.7049C53.712 23.2665 53.5777 22.7361 53.5777 22.1138C53.5777 21.0813 53.9595 20.2398 54.7233 19.5892C55.5012 18.9386 56.6256 18.6133 58.0965 18.6133C59.0724 18.6133 59.8856 18.783 60.5362 19.1225C61.201 19.4478 61.7172 19.8933 62.0849 20.459C62.4668 21.0106 62.7143 21.6329 62.8274 22.3259L60.515 22.4532C60.4443 22.0572 60.3028 21.7178 60.0907 21.4349C59.8785 21.1379 59.6028 20.9116 59.2633 20.756C58.938 20.5863 58.542 20.5014 58.0753 20.5014C57.354 20.5014 56.8094 20.6429 56.4417 20.9257C56.0881 21.2086 55.9113 21.5763 55.9113 22.0289C55.9113 22.3684 55.9891 22.6442 56.1447 22.8563C56.3144 23.0685 56.5831 23.2453 56.9509 23.3867C57.3186 23.514 57.8136 23.6271 58.4359 23.7261C59.6098 23.9241 60.5221 24.1716 61.1727 24.4687C61.8374 24.7515 62.3041 25.1051 62.5729 25.5294C62.8557 25.9537 62.9972 26.4699 62.9972 27.0781C62.9972 27.7853 62.7921 28.3864 62.3819 28.8814C61.9859 29.3764 61.4414 29.7583 60.7484 30.027C60.0695 30.2816 59.2775 30.4089 58.3723 30.4089ZM69.8722 30.4089C68.7831 30.4089 67.8355 30.1684 67.0294 29.6876C66.2373 29.2067 65.6221 28.5207 65.1836 27.6297C64.7452 26.7387 64.526 25.6991 64.526 24.5111C64.526 23.323 64.7452 22.2906 65.1836 21.4137C65.6221 20.5226 66.2303 19.8367 67.0081 19.3558C67.8002 18.8608 68.7336 18.6133 69.8085 18.6133C70.841 18.6133 71.7462 18.8537 72.5241 19.3346C73.3019 19.8013 73.903 20.4802 74.3273 21.3713C74.7658 22.2623 74.985 23.3372 74.985 24.5959V25.1688H66.8808C66.9374 26.2719 67.2274 27.0993 67.7507 27.6509C68.2881 28.2025 69.0024 28.4783 69.8934 28.4783C70.5723 28.4783 71.1239 28.3227 71.5482 28.0116C71.9866 27.7004 72.2978 27.2832 72.4816 26.7599L74.8153 26.9084C74.5183 27.955 73.9313 28.8036 73.0544 29.4542C72.1917 30.0907 71.1309 30.4089 69.8722 30.4089ZM66.8808 23.4715H72.5877C72.517 22.4674 72.227 21.7248 71.7179 21.244C71.2229 20.7631 70.5864 20.5226 69.8085 20.5226C69.0165 20.5226 68.3588 20.7772 67.8355 21.2864C67.3264 21.7814 67.0081 22.5098 66.8808 23.4715ZM84.5577 30.1543L81.1208 18.8679H83.4757L85.8942 27.6933L88.3764 18.8679H90.5191L93.0013 27.6933L95.4198 18.8679H97.7959L94.3378 30.1543H91.8132L89.4371 22.0926L87.0822 30.1543H84.5577ZM103.752 30.4089C102.663 30.4089 101.715 30.1684 100.909 29.6876C100.117 29.2067 99.5016 28.5207 99.0631 27.6297C98.6247 26.7387 98.4055 25.6991 98.4055 24.5111C98.4055 23.323 98.6247 22.2906 99.0631 21.4137C99.5016 20.5226 100.11 19.8367 100.888 19.3558C101.68 18.8608 102.613 18.6133 103.688 18.6133C104.72 18.6133 105.626 18.8537 106.404 19.3346C107.181 19.8013 107.783 20.4802 108.207 21.3713C108.645 22.2623 108.864 23.3372 108.864 24.5959V25.1688H100.76C100.817 26.2719 101.107 27.0993 101.63 27.6509C102.168 28.2025 102.882 28.4783 103.773 28.4783C104.452 28.4783 105.003 28.3227 105.428 28.0116C105.866 27.7004 106.177 27.2832 106.361 26.7599L108.695 26.9084C108.398 27.955 107.811 28.8036 106.934 29.4542C106.071 30.0907 105.01 30.4089 103.752 30.4089ZM100.76 23.4715H106.467C106.396 22.4674 106.107 21.7248 105.597 21.244C105.102 20.7631 104.466 20.5226 103.688 20.5226C102.896 20.5226 102.238 20.7772 101.715 21.2864C101.206 21.7814 100.888 22.5098 100.76 23.4715ZM110.805 30.1543V18.8679H113.054V30.1543H110.805ZM110.763 17.2343V14.9855H113.118V17.2343H110.763ZM120.604 33.5911C119.699 33.5911 118.907 33.4568 118.228 33.1881C117.563 32.9193 117.012 32.5375 116.573 32.0424C116.135 31.5616 115.838 30.9958 115.682 30.3452L118.016 30.1967C118.157 30.6635 118.426 31.0312 118.822 31.2999C119.218 31.5828 119.812 31.7242 120.604 31.7242C121.538 31.7242 122.252 31.5262 122.747 31.1302C123.242 30.7342 123.489 30.1331 123.489 29.3269V27.6933C123.221 28.2732 122.789 28.7329 122.195 29.0723C121.601 29.4118 120.936 29.5815 120.201 29.5815C119.268 29.5815 118.433 29.3481 117.698 28.8814C116.962 28.4147 116.382 27.7711 115.958 26.9508C115.548 26.1305 115.343 25.1829 115.343 24.108C115.343 23.019 115.548 22.0643 115.958 21.244C116.368 20.4236 116.934 19.7801 117.655 19.3134C118.376 18.8467 119.204 18.6133 120.137 18.6133C120.944 18.6133 121.651 18.7972 122.259 19.1649C122.867 19.5326 123.305 20.0276 123.574 20.6499V18.8679H125.759V29.2633C125.759 30.1967 125.547 30.9817 125.123 31.6181C124.699 32.2687 124.105 32.7567 123.341 33.082C122.577 33.4214 121.665 33.5911 120.604 33.5911ZM120.562 27.6721C121.453 27.6721 122.16 27.3539 122.683 26.7175C123.221 26.081 123.496 25.2041 123.511 24.0868C123.511 23.3513 123.39 22.7219 123.15 22.1986C122.924 21.6612 122.584 21.251 122.132 20.9682C121.693 20.6712 121.17 20.5226 120.562 20.5226C119.656 20.5226 118.949 20.8479 118.44 21.4985C117.931 22.135 117.676 22.9977 117.676 24.0868C117.676 25.19 117.938 26.0669 118.461 26.7175C118.985 27.3539 119.685 27.6721 120.562 27.6721ZM128.468 30.1543V15.0916H130.716V21.4137L130.441 21.3713C130.568 20.7348 130.801 20.2186 131.141 19.8226C131.48 19.4124 131.897 19.1083 132.392 18.9103C132.887 18.7123 133.432 18.6133 134.026 18.6133C134.846 18.6133 135.539 18.7972 136.105 19.1649C136.671 19.5185 137.095 20.0206 137.378 20.6712C137.675 21.3218 137.823 22.0643 137.823 22.8987V30.1543H135.575V23.4928C135.575 22.4744 135.398 21.7248 135.044 21.244C134.705 20.7489 134.167 20.5014 133.432 20.5014C132.612 20.5014 131.954 20.7631 131.459 21.2864C130.964 21.7956 130.716 22.5452 130.716 23.5352V30.1543H128.468ZM144.475 30.1543C143.4 30.1543 142.608 29.9068 142.099 29.4118C141.59 28.9168 141.336 28.1459 141.336 27.0993V16.216H143.584V26.9296C143.584 27.4529 143.697 27.8136 143.924 28.0116C144.15 28.2096 144.497 28.3086 144.963 28.3086H146.576V30.1543H144.475ZM139.617 20.7136V18.8679H146.576V20.7136H139.617Z" fill="#989898"/>
</svg>
