<svg width="224" height="46" viewBox="0 0 224 46" fill="none" xmlns="http://www.w3.org/2000/svg">
<rect x="1.01453" y="1.21961" width="221.971" height="43.7561" rx="21.8781" fill="#F8FFFA"/>
<rect x="1.01453" y="1.21961" width="221.971" height="43.7561" rx="21.8781" stroke="#D4EDD4" stroke-width="1.32594"/>
<g clip-path="url(#clip0_542_8780)">
<path d="M17.2576 23.7595L22.2299 30.0577L32.8374 16.4668" stroke="#6BCD70" stroke-width="1.98891" stroke-linecap="round" stroke-linejoin="round"/>
<path d="M27.5415 28.8087L28.528 30.0577L39.1355 16.4668" stroke="#6BCD70" stroke-width="1.98891" stroke-linecap="round" stroke-linejoin="round"/>
</g>
<path d="M52.5618 30.5977V15.5349H55.7016L60.178 27.9033L64.6544 15.5349H67.7942V30.5977H65.503V19.5658L61.4509 30.5764H58.9051L54.853 19.5658V30.5977H52.5618ZM74.1937 30.8522C73.034 30.8522 72.1005 30.5835 71.3933 30.0461C70.6862 29.5086 70.3326 28.7519 70.3326 27.7761C70.3326 26.8002 70.6225 26.0435 71.2024 25.506C71.7964 24.9544 72.7087 24.5584 73.9391 24.318L77.8215 23.5755C77.8215 22.6986 77.6164 22.048 77.2063 21.6237C76.8103 21.1852 76.2092 20.966 75.403 20.966C74.6817 20.966 74.1089 21.1287 73.6846 21.454C73.2744 21.7651 72.9986 22.2318 72.8572 22.8542L70.5235 22.7056C70.7357 21.5742 71.266 20.6831 72.1146 20.0325C72.9633 19.3819 74.0594 19.0567 75.403 19.0567C76.9305 19.0567 78.0902 19.4668 78.8823 20.2871C79.6743 21.0933 80.0703 22.2318 80.0703 23.7028V28.0943C80.0703 28.363 80.1198 28.5539 80.2188 28.6671C80.3178 28.7661 80.4734 28.8156 80.6855 28.8156H81.0886V30.5977C81.0179 30.6118 80.9048 30.6259 80.7492 30.6401C80.5936 30.6542 80.431 30.6613 80.2612 30.6613C79.7662 30.6613 79.349 30.5835 79.0096 30.4279C78.6701 30.2724 78.4085 30.0178 78.2246 29.6642C78.0549 29.2965 77.97 28.8085 77.97 28.2004L78.2034 28.3064C78.0902 28.8014 77.8427 29.2399 77.4609 29.6218C77.0931 30.0036 76.6264 30.3077 76.0607 30.534C75.4949 30.7462 74.8726 30.8522 74.1937 30.8522ZM74.5756 29.0702C75.2403 29.0702 75.8131 28.9429 76.294 28.6883C76.789 28.4196 77.1638 28.0518 77.4184 27.5851C77.6871 27.1184 77.8215 26.588 77.8215 25.994V25.2727L74.5332 25.9091C73.8543 26.0364 73.3734 26.2415 73.0905 26.5244C72.8077 26.7931 72.6662 27.1396 72.6662 27.5639C72.6662 28.0448 72.836 28.4196 73.1754 28.6883C73.5148 28.9429 73.9816 29.0702 74.5756 29.0702ZM83.1674 30.5977V19.3112H85.4162V30.5977H83.1674ZM83.1249 17.6777V15.4289H85.4798V17.6777H83.1249ZM88.0933 30.5977V19.3112H90.1511L90.236 22.3238L89.9602 22.1753C90.0875 21.4398 90.3279 20.8458 90.6815 20.3932C91.0351 19.9406 91.4665 19.6082 91.9756 19.3961C92.4848 19.1698 93.0364 19.0567 93.6304 19.0567C94.479 19.0567 95.1791 19.2476 95.7307 19.6295C96.2964 19.9972 96.7207 20.5063 97.0036 21.1569C97.3006 21.7934 97.4491 22.5218 97.4491 23.3421V30.5977H95.2003V24.021C95.2003 23.3562 95.1296 22.7976 94.9882 22.345C94.8467 21.8924 94.6134 21.5459 94.2881 21.3054C93.9628 21.065 93.5385 20.9448 93.0152 20.9448C92.2231 20.9448 91.5796 21.2064 91.0846 21.7298C90.5896 22.2531 90.3421 23.0168 90.3421 24.021V30.5977H88.0933ZM104.101 30.5977C103.026 30.5977 102.234 30.3501 101.725 29.8551C101.216 29.3601 100.961 28.5893 100.961 27.5427V16.6593H103.21V27.373C103.21 27.8963 103.323 28.2569 103.549 28.4549C103.776 28.6529 104.122 28.7519 104.589 28.7519H106.201V30.5977H104.101ZM99.2428 21.1569V19.3112H106.201V21.1569H99.2428ZM111.507 30.8522C110.348 30.8522 109.414 30.5835 108.707 30.0461C108 29.5086 107.646 28.7519 107.646 27.7761C107.646 26.8002 107.936 26.0435 108.516 25.506C109.11 24.9544 110.022 24.5584 111.253 24.318L115.135 23.5755C115.135 22.6986 114.93 22.048 114.52 21.6237C114.124 21.1852 113.523 20.966 112.717 20.966C111.995 20.966 111.423 21.1287 110.998 21.454C110.588 21.7651 110.312 22.2318 110.171 22.8542L107.837 22.7056C108.049 21.5742 108.58 20.6831 109.428 20.0325C110.277 19.3819 111.373 19.0567 112.717 19.0567C114.244 19.0567 115.404 19.4668 116.196 20.2871C116.988 21.0933 117.384 22.2318 117.384 23.7028V28.0943C117.384 28.363 117.433 28.5539 117.532 28.6671C117.631 28.7661 117.787 28.8156 117.999 28.8156H118.402V30.5977C118.332 30.6118 118.218 30.6259 118.063 30.6401C117.907 30.6542 117.745 30.6613 117.575 30.6613C117.08 30.6613 116.663 30.5835 116.323 30.4279C115.984 30.2724 115.722 30.0178 115.538 29.6642C115.369 29.2965 115.284 28.8085 115.284 28.2004L115.517 28.3064C115.404 28.8014 115.156 29.2399 114.775 29.6218C114.407 30.0036 113.94 30.3077 113.374 30.534C112.809 30.7462 112.186 30.8522 111.507 30.8522ZM111.889 29.0702C112.554 29.0702 113.127 28.9429 113.608 28.6883C114.103 28.4196 114.478 28.0518 114.732 27.5851C115.001 27.1184 115.135 26.588 115.135 25.994V25.2727L111.847 25.9091C111.168 26.0364 110.687 26.2415 110.404 26.5244C110.121 26.7931 109.98 27.1396 109.98 27.5639C109.98 28.0448 110.15 28.4196 110.489 28.6883C110.829 28.9429 111.295 29.0702 111.889 29.0702ZM120.481 30.5977V19.3112H122.73V30.5977H120.481ZM120.439 17.6777V15.4289H122.793V17.6777H120.439ZM125.407 30.5977V19.3112H127.465L127.55 22.3238L127.274 22.1753C127.401 21.4398 127.642 20.8458 127.995 20.3932C128.349 19.9406 128.78 19.6082 129.289 19.3961C129.798 19.1698 130.35 19.0567 130.944 19.0567C131.793 19.0567 132.493 19.2476 133.044 19.6295C133.61 19.9972 134.034 20.5063 134.317 21.1569C134.614 21.7934 134.763 22.5218 134.763 23.3421V30.5977H132.514V24.021C132.514 23.3562 132.443 22.7976 132.302 22.345C132.16 21.8924 131.927 21.5459 131.602 21.3054C131.276 21.065 130.852 20.9448 130.329 20.9448C129.537 20.9448 128.893 21.2064 128.398 21.7298C127.903 22.2531 127.656 23.0168 127.656 24.021V30.5977H125.407ZM144.988 30.5977L141.551 19.3112H143.906L146.325 28.1367L148.807 19.3112H150.95L153.432 28.1367L155.85 19.3112H158.226L154.768 30.5977H152.244L149.868 22.5359L147.513 30.5977H144.988ZM164.182 30.8522C163.093 30.8522 162.145 30.6118 161.339 30.1309C160.547 29.65 159.932 28.9641 159.494 28.0731C159.055 27.182 158.836 26.1425 158.836 24.9544C158.836 23.7664 159.055 22.7339 159.494 21.857C159.932 20.966 160.54 20.2801 161.318 19.7992C162.11 19.3042 163.044 19.0567 164.118 19.0567C165.151 19.0567 166.056 19.2971 166.834 19.778C167.612 20.2447 168.213 20.9236 168.637 21.8146C169.076 22.7056 169.295 23.7805 169.295 25.0393V25.6121H161.191C161.247 26.7153 161.537 27.5427 162.061 28.0943C162.598 28.6459 163.312 28.9217 164.203 28.9217C164.882 28.9217 165.434 28.7661 165.858 28.4549C166.297 28.1438 166.608 27.7265 166.792 27.2032L169.125 27.3517C168.828 28.3984 168.241 29.247 167.364 29.8976C166.502 30.534 165.441 30.8522 164.182 30.8522ZM161.191 23.9149H166.898C166.827 22.9107 166.537 22.1682 166.028 21.6873C165.533 21.2064 164.896 20.966 164.118 20.966C163.326 20.966 162.669 21.2206 162.145 21.7298C161.636 22.2248 161.318 22.9532 161.191 23.9149ZM171.236 30.5977V19.3112H173.484V30.5977H171.236ZM171.193 17.6777V15.4289H173.548V17.6777H171.193ZM181.035 34.0345C180.129 34.0345 179.337 33.9001 178.658 33.6314C177.994 33.3627 177.442 32.9808 177.004 32.4858C176.565 32.0049 176.268 31.4392 176.113 30.7886L178.446 30.6401C178.588 31.1068 178.856 31.4745 179.252 31.7433C179.648 32.0261 180.243 32.1676 181.035 32.1676C181.968 32.1676 182.682 31.9696 183.177 31.5736C183.672 31.1775 183.92 30.5764 183.92 29.7703V28.1367C183.651 28.7166 183.22 29.1762 182.626 29.5157C182.032 29.8551 181.367 30.0248 180.631 30.0248C179.698 30.0248 178.864 29.7915 178.128 29.3248C177.393 28.858 176.813 28.2145 176.388 27.3942C175.978 26.5739 175.773 25.6263 175.773 24.5514C175.773 23.4623 175.978 22.5076 176.388 21.6873C176.799 20.867 177.364 20.2235 178.086 19.7567C178.807 19.29 179.634 19.0567 180.568 19.0567C181.374 19.0567 182.081 19.2405 182.689 19.6082C183.297 19.976 183.736 20.471 184.005 21.0933V19.3112H186.19V29.7066C186.19 30.6401 185.978 31.425 185.553 32.0615C185.129 32.7121 184.535 33.2 183.771 33.5253C183.008 33.8648 182.095 34.0345 181.035 34.0345ZM180.992 28.1155C181.883 28.1155 182.59 27.7973 183.114 27.1608C183.651 26.5244 183.927 25.6475 183.941 24.5301C183.941 23.7947 183.821 23.1653 183.58 22.642C183.354 22.1046 183.015 21.6944 182.562 21.4115C182.124 21.1145 181.6 20.966 180.992 20.966C180.087 20.966 179.38 21.2913 178.871 21.9419C178.361 22.5784 178.107 23.4411 178.107 24.5301C178.107 25.6333 178.369 26.5102 178.892 27.1608C179.415 27.7973 180.115 28.1155 180.992 28.1155ZM188.898 30.5977V15.5349H191.147V21.857L190.871 21.8146C190.998 21.1782 191.232 20.6619 191.571 20.2659C191.911 19.8558 192.328 19.5517 192.823 19.3537C193.318 19.1557 193.862 19.0567 194.456 19.0567C195.277 19.0567 195.97 19.2405 196.535 19.6082C197.101 19.9618 197.526 20.4639 197.808 21.1145C198.105 21.7651 198.254 22.5076 198.254 23.3421V30.5977H196.005V23.9361C196.005 22.9178 195.828 22.1682 195.475 21.6873C195.135 21.1923 194.598 20.9448 193.862 20.9448C193.042 20.9448 192.384 21.2064 191.889 21.7298C191.394 22.2389 191.147 22.9885 191.147 23.9786V30.5977H188.898ZM204.906 30.5977C203.831 30.5977 203.039 30.3501 202.53 29.8551C202.021 29.3601 201.766 28.5893 201.766 27.5427V16.6593H204.015V27.373C204.015 27.8963 204.128 28.2569 204.354 28.4549C204.581 28.6529 204.927 28.7519 205.394 28.7519H207.006V30.5977H204.906ZM200.048 21.1569V19.3112H207.006V21.1569H200.048Z" fill="#6BCD70"/>
<defs>
<clipPath id="clip0_542_8780">
<rect width="23.867" height="23.867" fill="white" transform="translate(16.2629 11.1641)"/>
</clipPath>
</defs>
</svg>
