<svg width="150" height="46" viewBox="0 0 150 46" fill="none" xmlns="http://www.w3.org/2000/svg">
<rect x="1.25159" y="0.662971" width="147.497" height="43.7561" rx="21.8781" fill="#FBFBFB"/>
<rect x="1.25159" y="0.662971" width="147.497" height="43.7561" rx="21.8781" stroke="#E3E3E3" stroke-width="1.32594"/>
<path d="M24.2859 30.3805C22.8575 30.3805 21.634 30.0481 20.6157 29.3833C19.5974 28.7045 18.8195 27.7781 18.2821 26.6042C17.7446 25.4161 17.4759 24.0584 17.4759 22.5309C17.4759 21.0175 17.7517 19.6668 18.3033 18.4788C18.8549 17.2908 19.6398 16.3573 20.6582 15.6784C21.6906 14.9854 22.9282 14.6389 24.3708 14.6389C25.6154 14.6389 26.662 14.8581 27.5106 15.2965C28.3592 15.735 29.031 16.3361 29.5261 17.0998C30.0352 17.8636 30.3888 18.7334 30.5868 19.7093L28.1895 19.8366C28.0198 18.9172 27.6379 18.1747 27.0439 17.609C26.464 17.0291 25.5801 16.7392 24.392 16.7392C23.3313 16.7392 22.4685 17.0008 21.8038 17.5241C21.139 18.0474 20.644 18.7475 20.3187 19.6244C20.0076 20.5013 19.852 21.4701 19.852 22.5309C19.852 23.6341 20.0076 24.617 20.3187 25.4798C20.644 26.3425 21.1461 27.0285 21.825 27.5376C22.5039 28.0327 23.3595 28.2802 24.392 28.2802C25.2123 28.2802 25.9195 28.1034 26.5135 27.7498C27.1075 27.3962 27.5672 26.9153 27.8925 26.3072C28.2319 25.699 28.4158 25.0272 28.4441 24.2917H24.4132V22.3612H30.6292V30.041H29.0593L28.9108 26.6466L29.2078 26.9012C29.0523 27.5801 28.734 28.1812 28.2532 28.7045C27.7723 29.2278 27.1853 29.6379 26.4923 29.9349C25.8134 30.232 25.078 30.3805 24.2859 30.3805ZM36.2894 30.2956C35.1296 30.2956 34.1961 30.0269 33.489 29.4894C32.7818 28.952 32.4282 28.1953 32.4282 27.2194C32.4282 26.2435 32.7182 25.4868 33.298 24.9494C33.8921 24.3978 34.8043 24.0018 36.0348 23.7614L39.9171 23.0188C39.9171 22.1419 39.7121 21.4913 39.3019 21.067C38.9059 20.6286 38.3048 20.4094 37.4986 20.4094C36.7773 20.4094 36.2045 20.572 35.7802 20.8973C35.37 21.2085 35.0942 21.6752 34.9528 22.2975L32.6192 22.149C32.8313 21.0175 33.3617 20.1265 34.2103 19.4759C35.0589 18.8253 36.155 18.5 37.4986 18.5C39.0261 18.5 40.1859 18.9102 40.9779 19.7305C41.7699 20.5367 42.1659 21.6752 42.1659 23.1461V27.5376C42.1659 27.8064 42.2154 27.9973 42.3144 28.1104C42.4135 28.2094 42.569 28.2589 42.7812 28.2589H43.1843V30.041C43.1135 30.0552 43.0004 30.0693 42.8448 30.0834C42.6892 30.0976 42.5266 30.1047 42.3569 30.1047C41.8619 30.1047 41.4446 30.0269 41.1052 29.8713C40.7657 29.7157 40.5041 29.4611 40.3202 29.1076C40.1505 28.7398 40.0656 28.2519 40.0656 27.6437L40.299 27.7498C40.1859 28.2448 39.9384 28.6833 39.5565 29.0651C39.1888 29.447 38.722 29.7511 38.1563 29.9774C37.5906 30.1895 36.9682 30.2956 36.2894 30.2956ZM36.6712 28.5135C37.336 28.5135 37.9088 28.3862 38.3897 28.1317C38.8847 27.8629 39.2595 27.4952 39.5141 27.0285C39.7828 26.5617 39.9171 26.0314 39.9171 25.4373V24.716L36.6288 25.3525C35.9499 25.4798 35.469 25.6849 35.1862 25.9677C34.9033 26.2364 34.7619 26.583 34.7619 27.0073C34.7619 27.4881 34.9316 27.8629 35.271 28.1317C35.6105 28.3862 36.0772 28.5135 36.6712 28.5135ZM45.263 30.041V18.7546H47.5118V30.041H45.263ZM45.2206 17.121V14.8722H47.5755V17.121H45.2206ZM50.1889 30.041V18.7546H52.2467L52.3316 21.7671L52.0558 21.6186C52.1831 20.8832 52.4235 20.2891 52.7771 19.8366C53.1307 19.384 53.5621 19.0516 54.0712 18.8395C54.5804 18.6132 55.132 18.5 55.726 18.5C56.5746 18.5 57.2747 18.6909 57.8263 19.0728C58.3921 19.4405 58.8164 19.9497 59.0992 20.6003C59.3962 21.2368 59.5447 21.9651 59.5447 22.7855V30.041H57.2959V23.4643C57.2959 22.7996 57.2252 22.2409 57.0838 21.7883C56.9424 21.3358 56.709 20.9892 56.3837 20.7488C56.0584 20.5084 55.6341 20.3882 55.1108 20.3882C54.3188 20.3882 53.6752 20.6498 53.1802 21.1731C52.6852 21.6964 52.4377 22.4602 52.4377 23.4643V30.041H50.1889ZM69.7701 30.041L66.3332 18.7546H68.6881L71.1066 27.5801L73.5888 18.7546H75.7315L78.2137 27.5801L80.6322 18.7546H83.0083L79.5502 30.041H77.0256L74.6495 21.9793L72.2947 30.041H69.7701ZM88.9641 30.2956C87.875 30.2956 86.9274 30.0552 86.1213 29.5743C85.3292 29.0934 84.714 28.4075 84.2756 27.5164C83.8371 26.6254 83.6179 25.5858 83.6179 24.3978C83.6179 23.2098 83.8371 22.1773 84.2756 21.3004C84.714 20.4094 85.3222 19.7234 86.1001 19.2425C86.8921 18.7475 87.8255 18.5 88.9004 18.5C89.9329 18.5 90.8381 18.7404 91.616 19.2213C92.3939 19.6881 92.995 20.3669 93.4193 21.258C93.8577 22.149 94.0769 23.2239 94.0769 24.4827V25.0555H85.9728C86.0293 26.1587 86.3193 26.986 86.8426 27.5376C87.38 28.0892 88.0943 28.365 88.9853 28.365C89.6642 28.365 90.2158 28.2094 90.6401 27.8983C91.0785 27.5871 91.3897 27.1699 91.5735 26.6466L93.9072 26.7951C93.6102 27.8417 93.0232 28.6903 92.1464 29.3409C91.2836 29.9774 90.2229 30.2956 88.9641 30.2956ZM85.9728 23.3583H91.6796C91.6089 22.3541 91.319 21.6116 90.8098 21.1307C90.3148 20.6498 89.6783 20.4094 88.9004 20.4094C88.1084 20.4094 87.4507 20.6639 86.9274 21.1731C86.4183 21.6681 86.1001 22.3965 85.9728 23.3583ZM96.0176 30.041V18.7546H98.2664V30.041H96.0176ZM95.9752 17.121V14.8722H98.3301V17.121H95.9752ZM105.816 33.4779C104.911 33.4779 104.119 33.3435 103.44 33.0748C102.776 32.806 102.224 32.4242 101.786 31.9292C101.347 31.4483 101.05 30.8825 100.895 30.232L103.228 30.0834C103.37 30.5502 103.638 30.9179 104.034 31.1866C104.43 31.4695 105.024 31.6109 105.816 31.6109C106.75 31.6109 107.464 31.4129 107.959 31.0169C108.454 30.6209 108.702 30.0198 108.702 29.2136V27.5801C108.433 28.1599 108.002 28.6196 107.408 28.959C106.814 29.2985 106.149 29.4682 105.413 29.4682C104.48 29.4682 103.645 29.2348 102.91 28.7681C102.175 28.3014 101.595 27.6579 101.17 26.8375C100.76 26.0172 100.555 25.0696 100.555 23.9947C100.555 22.9057 100.76 21.951 101.17 21.1307C101.581 20.3104 102.146 19.6668 102.868 19.2001C103.589 18.7334 104.416 18.5 105.35 18.5C106.156 18.5 106.863 18.6839 107.471 19.0516C108.079 19.4193 108.518 19.9143 108.787 20.5367V18.7546H110.972V29.15C110.972 30.0834 110.76 30.8684 110.335 31.5049C109.911 32.1555 109.317 32.6434 108.553 32.9687C107.789 33.3081 106.877 33.4779 105.816 33.4779ZM105.774 27.5589C106.665 27.5589 107.372 27.2406 107.896 26.6042C108.433 25.9677 108.709 25.0908 108.723 23.9735C108.723 23.238 108.603 22.6087 108.362 22.0854C108.136 21.5479 107.797 21.1378 107.344 20.8549C106.906 20.5579 106.382 20.4094 105.774 20.4094C104.869 20.4094 104.162 20.7347 103.653 21.3853C103.143 22.0217 102.889 22.8845 102.889 23.9735C102.889 25.0767 103.15 25.9536 103.674 26.6042C104.197 27.2406 104.897 27.5589 105.774 27.5589ZM113.68 30.041V14.9783H115.929V21.3004L115.653 21.258C115.78 20.6215 116.014 20.1053 116.353 19.7093C116.693 19.2991 117.11 18.995 117.605 18.797C118.1 18.599 118.644 18.5 119.238 18.5C120.059 18.5 120.752 18.6839 121.317 19.0516C121.883 19.4052 122.307 19.9073 122.59 20.5579C122.887 21.2085 123.036 21.951 123.036 22.7855V30.041H120.787V23.3795C120.787 22.3612 120.61 21.6116 120.257 21.1307C119.917 20.6357 119.38 20.3882 118.644 20.3882C117.824 20.3882 117.166 20.6498 116.671 21.1731C116.176 21.6823 115.929 22.4319 115.929 23.4219V30.041H113.68ZM129.688 30.041C128.613 30.041 127.821 29.7935 127.312 29.2985C126.803 28.8035 126.548 28.0327 126.548 26.986V16.1027H128.797V26.8163C128.797 27.3396 128.91 27.7003 129.136 27.8983C129.362 28.0963 129.709 28.1953 130.176 28.1953H131.788V30.041H129.688ZM124.83 20.6003V18.7546H131.788V20.6003H124.83Z" fill="#989898"/>
</svg>
