<svg width="268" height="161" viewBox="0 0 268 161" fill="none" xmlns="http://www.w3.org/2000/svg">
<g opacity="0.5">
<rect x="24.9414" y="88.4727" width="219.118" height="67.0546" rx="10.8719" fill="#FBFBFB"/>
<rect x="24.9414" y="88.4727" width="219.118" height="67.0546" rx="10.8719" stroke="#E3E3E3" stroke-width="0.945385"/>
<rect x="34.434" y="97.9645" width="48.0695" height="48.0695" rx="24.0348" fill="#FBFBFB"/>
<rect x="34.434" y="97.9645" width="48.0695" height="48.0695" rx="24.0348" stroke="#E3E3E3" stroke-width="1.02276"/>
<g clip-path="url(#clip0_542_8816)">
<path d="M60.8554 129.158V130.181C60.8554 131.498 59.7863 132.567 58.469 132.567C57.1516 132.567 56.0825 131.498 56.0825 130.181V129.158" stroke="#BABABA" stroke-width="2.04551" stroke-linecap="round" stroke-linejoin="round"/>
<path d="M53.816 113.836L52.9678 113.163C52.0269 112.415 50.6469 112.636 49.9868 113.641L47.595 117.279C46.5517 118.867 47.6904 120.976 49.5887 120.976H51.2155" stroke="#BABABA" stroke-width="2.04551" stroke-linecap="round" stroke-linejoin="round"/>
<path d="M63.1218 113.836L63.97 113.163C64.911 112.415 66.291 112.636 66.951 113.641L69.3429 117.279C70.3861 118.867 69.2475 120.976 67.3492 120.976H65.7224" stroke="#BABABA" stroke-width="2.04551" stroke-linecap="round" stroke-linejoin="round"/>
<path d="M65.6279 122.811V119.273C65.6279 115.319 62.4232 112.113 58.4686 112.113C54.5139 112.113 51.3093 115.319 51.3093 119.273V122.811C50.8797 123.458 50.6274 124.232 50.6274 125.068C50.6274 127.328 52.4589 129.159 54.7185 129.159C56.3985 129.159 57.8386 128.145 58.4686 126.696C59.0986 128.145 60.5386 129.159 62.2187 129.159C64.4783 129.159 66.3097 127.328 66.3097 125.068C66.3097 124.234 66.0574 123.459 65.6279 122.811Z" stroke="#BABABA" stroke-width="2.04551" stroke-linecap="round" stroke-linejoin="round"/>
<path d="M56.7642 124.387H60.1733L58.4688 126.773L56.7642 124.387Z" stroke="#BABABA" stroke-width="2.04551" stroke-linecap="round" stroke-linejoin="round"/>
<path d="M55.0595 122.001C55.8126 122.001 56.4232 121.39 56.4232 120.637C56.4232 119.884 55.8126 119.273 55.0595 119.273C54.3063 119.273 53.6958 119.884 53.6958 120.637C53.6958 121.39 54.3063 122.001 55.0595 122.001Z" fill="#BABABA"/>
<path d="M61.8781 122.001C62.6312 122.001 63.2418 121.39 63.2418 120.637C63.2418 119.884 62.6312 119.273 61.8781 119.273C61.1249 119.273 60.5144 119.884 60.5144 120.637C60.5144 121.39 61.1249 122.001 61.8781 122.001Z" fill="#BABABA"/>
</g>
<path d="M94.6497 116.375V104.756H96.4171V115.72L95.4843 114.755H102.079V116.375H94.6497ZM103.846 116.375V107.669H105.581V116.375H103.846ZM103.814 106.409V104.675H105.63V106.409H103.814ZM110.177 116.375L107.002 107.669H108.852L111.224 114.608L113.597 107.669H115.463L112.288 116.375H110.177ZM120.048 116.571C119.208 116.571 118.477 116.386 117.855 116.015C117.244 115.644 116.77 115.115 116.432 114.428C116.093 113.74 115.924 112.939 115.924 112.022C115.924 111.106 116.093 110.309 116.432 109.633C116.77 108.946 117.239 108.417 117.839 108.046C118.45 107.664 119.17 107.473 119.999 107.473C120.795 107.473 121.493 107.658 122.093 108.029C122.694 108.389 123.157 108.913 123.484 109.6C123.823 110.288 123.992 111.117 123.992 112.088V112.529H117.741C117.784 113.38 118.008 114.019 118.412 114.444C118.826 114.87 119.377 115.082 120.064 115.082C120.588 115.082 121.013 114.962 121.341 114.722C121.679 114.482 121.919 114.16 122.061 113.757L123.861 113.871C123.632 114.679 123.179 115.333 122.503 115.835C121.837 116.326 121.019 116.571 120.048 116.571ZM117.741 111.22H122.143C122.088 110.446 121.864 109.873 121.472 109.502C121.09 109.131 120.599 108.946 119.999 108.946C119.388 108.946 118.881 109.142 118.477 109.535C118.084 109.917 117.839 110.478 117.741 111.22ZM125.68 116.375V107.669H127.268L127.333 109.977L127.186 109.928C127.306 109.142 127.546 108.569 127.906 108.209C128.277 107.849 128.773 107.669 129.395 107.669H130.23V109.224H129.395C128.959 109.224 128.593 109.295 128.299 109.437C128.004 109.578 127.78 109.797 127.628 110.091C127.486 110.386 127.415 110.768 127.415 111.237V116.375H125.68Z" fill="#BABABA"/>
<path d="M99.9681 138.604V136.083H94.0606V134.807L99.8699 126.985H101.375V134.709H102.815V136.083H101.375V138.604H99.9681ZM95.7625 134.709H99.9681V129.145L95.7625 134.709ZM104.235 138.604V136.754H106.084V138.604H104.235ZM111.796 138.865C110.978 138.865 110.269 138.729 109.669 138.456C109.08 138.184 108.61 137.802 108.261 137.311C107.923 136.82 107.727 136.253 107.672 135.609L109.145 135.511C109.232 136.165 109.51 136.662 109.98 137C110.46 137.327 111.065 137.491 111.796 137.491C112.614 137.491 113.263 137.262 113.743 136.803C114.223 136.334 114.463 135.691 114.463 134.873C114.463 134.327 114.354 133.858 114.136 133.465C113.929 133.062 113.623 132.751 113.22 132.532C112.816 132.314 112.331 132.205 111.763 132.205C111.229 132.205 110.743 132.32 110.307 132.549C109.87 132.778 109.56 133.1 109.374 133.514H107.869L108.638 126.985H115.151V128.36H109.93L109.407 132.647L109.145 132.385C109.32 132.047 109.549 131.769 109.832 131.551C110.127 131.321 110.46 131.152 110.831 131.043C111.212 130.923 111.611 130.863 112.025 130.863C112.8 130.863 113.481 131.038 114.071 131.387C114.66 131.725 115.118 132.2 115.445 132.811C115.772 133.411 115.936 134.098 115.936 134.873C115.936 135.647 115.762 136.34 115.412 136.951C115.063 137.551 114.578 138.02 113.956 138.358C113.334 138.696 112.614 138.865 111.796 138.865ZM121.418 141.254C120.796 141.254 120.234 141.151 119.732 140.944C119.23 140.736 118.81 140.442 118.472 140.06C118.134 139.678 117.905 139.236 117.785 138.734L119.225 138.636C119.356 139.04 119.585 139.356 119.912 139.585C120.25 139.825 120.752 139.945 121.418 139.945C122.203 139.945 122.803 139.787 123.218 139.471C123.643 139.154 123.856 138.68 123.856 138.047V136.64C123.649 137.098 123.316 137.463 122.858 137.736C122.4 138.009 121.887 138.145 121.32 138.145C120.589 138.145 119.934 137.965 119.356 137.605C118.789 137.245 118.341 136.749 118.014 136.116C117.698 135.483 117.539 134.758 117.539 133.94C117.539 133.111 117.698 132.385 118.014 131.763C118.33 131.131 118.767 130.634 119.323 130.274C119.89 129.914 120.534 129.734 121.254 129.734C121.865 129.734 122.41 129.876 122.89 130.16C123.381 130.443 123.725 130.825 123.921 131.305V129.931H125.231V138.014C125.231 138.691 125.078 139.269 124.772 139.749C124.467 140.24 124.031 140.611 123.463 140.862C122.896 141.124 122.214 141.254 121.418 141.254ZM121.385 136.836C122.127 136.836 122.721 136.58 123.169 136.067C123.616 135.543 123.845 134.834 123.856 133.94C123.867 133.34 123.769 132.827 123.561 132.402C123.365 131.965 123.076 131.632 122.694 131.403C122.323 131.163 121.887 131.043 121.385 131.043C120.621 131.043 120.027 131.305 119.601 131.829C119.187 132.342 118.979 133.045 118.979 133.94C118.979 134.834 119.192 135.543 119.618 136.067C120.054 136.58 120.643 136.836 121.385 136.836ZM130.953 140.404L135.78 126.33H137.089L132.262 140.404H130.953ZM147.03 138.865C146.212 138.865 145.503 138.729 144.903 138.456C144.314 138.184 143.844 137.802 143.495 137.311C143.157 136.82 142.961 136.253 142.906 135.609L144.379 135.511C144.466 136.165 144.744 136.662 145.214 137C145.694 137.327 146.299 137.491 147.03 137.491C147.848 137.491 148.497 137.262 148.977 136.803C149.457 136.334 149.697 135.691 149.697 134.873C149.697 134.327 149.588 133.858 149.37 133.465C149.163 133.062 148.857 132.751 148.454 132.532C148.05 132.314 147.565 132.205 146.997 132.205C146.463 132.205 145.977 132.32 145.541 132.549C145.104 132.778 144.794 133.1 144.608 133.514H143.103L143.872 126.985H150.385V128.36H145.164L144.641 132.647L144.379 132.385C144.554 132.047 144.783 131.769 145.066 131.551C145.361 131.321 145.694 131.152 146.064 131.043C146.446 130.923 146.844 130.863 147.259 130.863C148.034 130.863 148.715 131.038 149.305 131.387C149.894 131.725 150.352 132.2 150.679 132.811C151.006 133.411 151.17 134.098 151.17 134.873C151.17 135.647 150.996 136.34 150.646 136.951C150.297 137.551 149.812 138.02 149.19 138.358C148.568 138.696 147.848 138.865 147.03 138.865ZM155.293 132.614C154.562 132.614 153.957 132.369 153.477 131.878C153.008 131.376 152.773 130.661 152.773 129.734C152.773 128.796 153.008 128.081 153.477 127.59C153.957 127.1 154.562 126.854 155.293 126.854C156.035 126.854 156.641 127.1 157.11 127.59C157.579 128.081 157.814 128.796 157.814 129.734C157.814 130.661 157.579 131.376 157.11 131.878C156.641 132.369 156.035 132.614 155.293 132.614ZM155.293 131.6C155.741 131.6 156.073 131.436 156.292 131.109C156.521 130.781 156.635 130.323 156.635 129.734C156.635 129.145 156.521 128.687 156.292 128.36C156.073 128.032 155.741 127.869 155.293 127.869C154.857 127.869 154.524 128.032 154.295 128.36C154.066 128.687 153.952 129.145 153.952 129.734C153.952 130.323 154.066 130.781 154.295 131.109C154.524 131.436 154.857 131.6 155.293 131.6ZM161.937 138.734C161.206 138.734 160.601 138.489 160.121 137.998C159.652 137.496 159.417 136.782 159.417 135.854C159.417 134.916 159.652 134.202 160.121 133.711C160.601 133.22 161.206 132.974 161.937 132.974C162.679 132.974 163.285 133.22 163.754 133.711C164.223 134.202 164.457 134.916 164.457 135.854C164.457 136.782 164.223 137.496 163.754 137.998C163.285 138.489 162.679 138.734 161.937 138.734ZM161.937 137.72C162.385 137.72 162.717 137.556 162.935 137.229C163.165 136.902 163.279 136.443 163.279 135.854C163.279 135.265 163.165 134.807 162.935 134.48C162.717 134.152 162.385 133.989 161.937 133.989C161.501 133.989 161.168 134.152 160.939 134.48C160.71 134.807 160.595 135.265 160.595 135.854C160.595 136.443 160.71 136.902 160.939 137.229C161.168 137.556 161.501 137.72 161.937 137.72ZM153.952 138.604L161.97 126.985H163.279L155.261 138.604H153.952Z" fill="#BABABA"/>
<rect x="28.3523" y="5.46951" width="211.296" height="67.061" rx="10.7988" fill="#FBFBFB"/>
<rect x="28.3523" y="5.46951" width="211.296" height="67.061" rx="10.7988" stroke="#E3E3E3" stroke-width="0.93903"/>
<rect x="37.7811" y="15.1271" width="47.7464" height="47.7464" rx="23.8732" fill="#FBFBFB"/>
<rect x="37.7811" y="15.1271" width="47.7464" height="47.7464" rx="23.8732" stroke="#E3E3E3" stroke-width="1.01588"/>
<path d="M61.6553 36.6295C63.7125 36.6295 65.3802 34.9618 65.3802 32.9046C65.3802 30.8474 63.7125 29.1797 61.6553 29.1797C59.5981 29.1797 57.9304 30.8474 57.9304 32.9046C57.9304 34.9618 59.5981 36.6295 61.6553 36.6295Z" stroke="#BABABA" stroke-width="2.03176" stroke-linecap="round" stroke-linejoin="round"/>
<path d="M68.1052 47.8257C69.2701 47.4586 69.8823 46.1719 69.3879 45.0557C68.0741 42.088 65.109 40.0156 61.6551 40.0156C58.2011 40.0156 55.236 42.088 53.9222 45.0557C53.4278 46.1732 54.04 47.4586 55.2049 47.8257C56.8642 48.3486 59.0598 48.8199 61.6551 48.8199C64.2503 48.8199 66.4459 48.3486 68.1052 47.8257Z" stroke="#BABABA" stroke-width="2.03176" stroke-linecap="round" stroke-linejoin="round"/>
<path d="M97.6897 33.4121V21.8717H99.6402L103.33 31.8842L107.003 21.8717H108.954V33.4121H107.556V24.4724L104.256 33.4121H102.387L99.0876 24.4724V33.4121H97.6897ZM115 33.6072C114.187 33.6072 113.483 33.4229 112.887 33.0545C112.301 32.6861 111.846 32.166 111.521 31.4941C111.207 30.8115 111.05 30.015 111.05 29.1048C111.05 28.1945 111.207 27.4035 111.521 26.7317C111.846 26.0598 112.296 25.5397 112.87 25.1713C113.455 24.792 114.144 24.6024 114.935 24.6024C115.682 24.6024 116.343 24.7812 116.918 25.1388C117.492 25.4855 117.936 25.9948 118.25 26.6667C118.575 27.3385 118.738 28.1566 118.738 29.121V29.5274H112.48C112.534 30.4484 112.778 31.142 113.212 31.6079C113.656 32.0739 114.252 32.3068 115 32.3068C115.563 32.3068 116.024 32.1768 116.381 31.9167C116.75 31.6458 117.004 31.2937 117.145 30.8602L118.608 30.974C118.38 31.7434 117.947 32.3773 117.308 32.8757C116.679 33.3633 115.91 33.6072 115 33.6072ZM112.48 28.3246H117.243C117.178 27.4902 116.934 26.878 116.511 26.4879C116.099 26.0978 115.574 25.9027 114.935 25.9027C114.274 25.9027 113.726 26.1086 113.293 26.5204C112.87 26.9213 112.599 27.5227 112.48 28.3246ZM123.019 33.6072C122.13 33.6072 121.421 33.4013 120.89 32.9895C120.37 32.5777 120.11 32.0034 120.11 31.2666C120.11 30.5297 120.326 29.95 120.76 29.5274C121.193 29.1048 121.881 28.8068 122.824 28.6334L125.88 28.0645C125.88 27.3385 125.706 26.7967 125.36 26.4391C125.024 26.0815 124.514 25.9027 123.832 25.9027C123.236 25.9027 122.764 26.0382 122.418 26.3091C122.071 26.5691 121.832 26.9484 121.702 27.4469L120.256 27.3331C120.418 26.5204 120.808 25.8648 121.426 25.3663C122.055 24.857 122.856 24.6024 123.832 24.6024C124.937 24.6024 125.782 24.9166 126.367 25.5451C126.953 26.1628 127.245 27.0188 127.245 28.1133V31.6729C127.245 31.868 127.278 32.0088 127.343 32.0955C127.418 32.1714 127.538 32.2093 127.7 32.2093H128.042V33.4121C127.998 33.4229 127.928 33.4284 127.83 33.4284C127.733 33.4392 127.63 33.4446 127.521 33.4446C127.131 33.4446 126.812 33.385 126.562 33.2658C126.324 33.1358 126.151 32.9407 126.042 32.6807C125.934 32.4098 125.88 32.0576 125.88 31.6242L126.042 31.6567C125.966 32.0251 125.782 32.361 125.49 32.6644C125.197 32.957 124.834 33.19 124.401 33.3633C123.967 33.5259 123.507 33.6072 123.019 33.6072ZM123.149 32.4044C123.723 32.4044 124.211 32.296 124.612 32.0793C125.024 31.8517 125.338 31.5483 125.555 31.169C125.771 30.7789 125.88 30.3455 125.88 29.8687V29.2511L123.084 29.7712C122.499 29.8796 122.093 30.0475 121.865 30.2751C121.648 30.4918 121.54 30.7789 121.54 31.1365C121.54 31.5375 121.681 31.8517 121.963 32.0793C122.255 32.296 122.651 32.4044 123.149 32.4044ZM132.097 33.4121C131.317 33.4121 130.737 33.2333 130.358 32.8757C129.989 32.5181 129.805 31.9601 129.805 31.2016V22.7819H131.171V31.169C131.171 31.5591 131.257 31.83 131.431 31.9817C131.604 32.1335 131.87 32.2093 132.227 32.2093H133.462V33.4121H132.097ZM128.537 26.0002V24.7974H133.462V26.0002H128.537ZM141.468 33.6072C140.58 33.6072 139.87 33.4013 139.339 32.9895C138.819 32.5777 138.559 32.0034 138.559 31.2666C138.559 30.5297 138.775 29.95 139.209 29.5274C139.642 29.1048 140.33 28.8068 141.273 28.6334L144.329 28.0645C144.329 27.3385 144.155 26.7967 143.809 26.4391C143.473 26.0815 142.963 25.9027 142.281 25.9027C141.685 25.9027 141.213 26.0382 140.867 26.3091C140.52 26.5691 140.282 26.9484 140.151 27.4469L138.705 27.3331C138.867 26.5204 139.258 25.8648 139.875 25.3663C140.504 24.857 141.306 24.6024 142.281 24.6024C143.386 24.6024 144.231 24.9166 144.816 25.5451C145.402 26.1628 145.694 27.0188 145.694 28.1133V31.6729C145.694 31.868 145.727 32.0088 145.792 32.0955C145.867 32.1714 145.987 32.2093 146.149 32.2093H146.491V33.4121C146.447 33.4229 146.377 33.4284 146.279 33.4284C146.182 33.4392 146.079 33.4446 145.97 33.4446C145.58 33.4446 145.261 33.385 145.011 33.2658C144.773 33.1358 144.6 32.9407 144.491 32.6807C144.383 32.4098 144.329 32.0576 144.329 31.6242L144.491 31.6567C144.415 32.0251 144.231 32.361 143.939 32.6644C143.646 32.957 143.283 33.19 142.85 33.3633C142.416 33.5259 141.956 33.6072 141.468 33.6072ZM141.598 32.4044C142.172 32.4044 142.66 32.296 143.061 32.0793C143.473 31.8517 143.787 31.5483 144.004 31.169C144.22 30.7789 144.329 30.3455 144.329 29.8687V29.2511L141.533 29.7712C140.948 29.8796 140.542 30.0475 140.314 30.2751C140.097 30.4918 139.989 30.7789 139.989 31.1365C139.989 31.5375 140.13 31.8517 140.412 32.0793C140.704 32.296 141.1 32.4044 141.598 32.4044ZM148.123 33.4121V24.7974H149.375L149.423 26.9917L149.261 26.8455C149.369 26.3362 149.559 25.919 149.83 25.5939C150.101 25.258 150.426 25.0087 150.805 24.8462C151.195 24.6837 151.612 24.6024 152.056 24.6024C152.717 24.6024 153.259 24.7487 153.682 25.0413C154.115 25.3338 154.435 25.7293 154.641 26.2278C154.858 26.7154 154.966 27.2626 154.966 27.8695V33.4121H153.601V28.2596C153.601 27.7286 153.536 27.2843 153.406 26.9267C153.286 26.5583 153.091 26.282 152.82 26.0978C152.549 25.9027 152.197 25.8052 151.764 25.8052C151.103 25.8052 150.556 26.0165 150.122 26.4391C149.7 26.8509 149.488 27.4577 149.488 28.2596V33.4121H148.123ZM160.271 33.6072C159.524 33.6072 158.874 33.4229 158.321 33.0545C157.779 32.6861 157.362 32.166 157.069 31.4941C156.777 30.8223 156.63 30.0258 156.63 29.1048C156.63 28.1837 156.777 27.3873 157.069 26.7154C157.362 26.0436 157.779 25.5235 158.321 25.155C158.874 24.7866 159.524 24.6024 160.271 24.6024C160.846 24.6024 161.371 24.727 161.848 24.9762C162.325 25.2146 162.682 25.556 162.921 26.0002V21.8717H164.286V33.4121H163.051L163.002 32.1118C162.764 32.5777 162.401 32.9462 161.913 33.2171C161.425 33.4771 160.878 33.6072 160.271 33.6072ZM160.548 32.3068C161.057 32.3068 161.485 32.1768 161.832 31.9167C162.189 31.6567 162.46 31.2882 162.644 30.8115C162.829 30.3238 162.921 29.7549 162.921 29.1048C162.921 28.4329 162.829 27.8586 162.644 27.3818C162.46 26.9051 162.189 26.542 161.832 26.2928C161.485 26.0328 161.057 25.9027 160.548 25.9027C159.789 25.9027 159.182 26.1899 158.727 26.7642C158.283 27.3277 158.061 28.1079 158.061 29.1048C158.061 30.0909 158.283 30.8711 158.727 31.4454C159.182 32.0197 159.789 32.3068 160.548 32.3068ZM174.569 33.6072C173.973 33.6072 173.442 33.4771 172.976 33.2171C172.511 32.9462 172.153 32.5777 171.904 32.1118L171.855 33.4121H170.62V21.8717H171.985V26.0002C172.202 25.6427 172.538 25.323 172.993 25.0413C173.448 24.7487 173.973 24.6024 174.569 24.6024C175.328 24.6024 175.983 24.7866 176.536 25.155C177.089 25.5235 177.517 26.0436 177.82 26.7154C178.124 27.3873 178.275 28.1837 178.275 29.1048C178.275 30.0258 178.124 30.8223 177.82 31.4941C177.517 32.166 177.089 32.6861 176.536 33.0545C175.983 33.4229 175.328 33.6072 174.569 33.6072ZM174.488 32.3068C175.214 32.3068 175.788 32.0197 176.211 31.4454C176.634 30.8711 176.845 30.0909 176.845 29.1048C176.845 28.1079 176.634 27.3277 176.211 26.7642C175.788 26.1899 175.225 25.9027 174.521 25.9027C173.99 25.9027 173.535 26.0328 173.155 26.2928C172.776 26.542 172.483 26.9051 172.278 27.3818C172.083 27.8586 171.985 28.4329 171.985 29.1048C171.985 29.7549 172.083 30.3238 172.278 30.8115C172.483 31.2882 172.771 31.6567 173.139 31.9167C173.518 32.1768 173.968 32.3068 174.488 32.3068ZM183.505 33.6072C182.714 33.6072 182.021 33.4229 181.425 33.0545C180.829 32.6861 180.368 32.166 180.043 31.4941C179.718 30.8115 179.556 30.015 179.556 29.1048C179.556 28.1837 179.718 27.3873 180.043 26.7154C180.368 26.0436 180.829 25.5235 181.425 25.155C182.021 24.7866 182.714 24.6024 183.505 24.6024C184.296 24.6024 184.985 24.7866 185.57 25.155C186.166 25.5235 186.626 26.0436 186.951 26.7154C187.276 27.3873 187.439 28.1837 187.439 29.1048C187.439 30.015 187.276 30.8115 186.951 31.4941C186.626 32.166 186.166 32.6861 185.57 33.0545C184.985 33.4229 184.296 33.6072 183.505 33.6072ZM183.505 32.3068C184.296 32.3068 184.909 32.0251 185.342 31.4616C185.786 30.8873 186.009 30.1017 186.009 29.1048C186.009 28.1079 185.786 27.3277 185.342 26.7642C184.909 26.1899 184.296 25.9027 183.505 25.9027C182.714 25.9027 182.097 26.1899 181.652 26.7642C181.208 27.3277 180.986 28.1079 180.986 29.1048C180.986 30.1017 181.208 30.8873 181.652 31.4616C182.097 32.0251 182.714 32.3068 183.505 32.3068ZM189.263 33.4121V24.7974H190.515L190.563 26.9917L190.401 26.8455C190.509 26.3362 190.699 25.919 190.97 25.5939C191.241 25.258 191.566 25.0087 191.945 24.8462C192.335 24.6837 192.752 24.6024 193.196 24.6024C193.857 24.6024 194.399 24.7487 194.822 25.0413C195.255 25.3338 195.575 25.7293 195.781 26.2278C195.998 26.7154 196.106 27.2626 196.106 27.8695V33.4121H194.741V28.2596C194.741 27.7286 194.676 27.2843 194.546 26.9267C194.426 26.5583 194.231 26.282 193.96 26.0978C193.689 25.9027 193.337 25.8052 192.904 25.8052C192.243 25.8052 191.696 26.0165 191.262 26.4391C190.84 26.8509 190.628 27.4577 190.628 28.2596V33.4121H189.263ZM201.72 33.6072C200.907 33.6072 200.203 33.4229 199.607 33.0545C199.022 32.6861 198.567 32.166 198.242 31.4941C197.928 30.8115 197.77 30.015 197.77 29.1048C197.77 28.1945 197.928 27.4035 198.242 26.7317C198.567 26.0598 199.017 25.5397 199.591 25.1713C200.176 24.792 200.864 24.6024 201.655 24.6024C202.403 24.6024 203.064 24.7812 203.638 25.1388C204.212 25.4855 204.657 25.9948 204.971 26.6667C205.296 27.3385 205.459 28.1566 205.459 29.121V29.5274H199.201C199.255 30.4484 199.499 31.142 199.932 31.6079C200.377 32.0739 200.972 32.3068 201.72 32.3068C202.284 32.3068 202.744 32.1768 203.102 31.9167C203.47 31.6458 203.725 31.2937 203.866 30.8602L205.329 30.974C205.101 31.7434 204.668 32.3773 204.028 32.8757C203.4 33.3633 202.63 33.6072 201.72 33.6072ZM199.201 28.3246H203.963C203.898 27.4902 203.654 26.878 203.232 26.4879C202.82 26.0978 202.294 25.9027 201.655 25.9027C200.994 25.9027 200.447 26.1086 200.013 26.5204C199.591 26.9213 199.32 27.5227 199.201 28.3246Z" fill="#BABABA"/>
<path d="M99.4126 55.5703C99.4126 54.3783 99.5752 53.1918 99.9003 52.0107C100.225 50.8187 100.691 49.6647 101.298 48.5485C101.916 47.4324 102.653 46.3813 103.509 45.3953H96.8445V44.0299H105.037V45.2977C104.072 46.403 103.276 47.4974 102.647 48.5811C102.03 49.6538 101.574 50.7645 101.282 51.9131C100.989 53.0509 100.843 54.27 100.843 55.5703H99.4126ZM106.499 55.5703C106.499 54.7576 106.624 54.0262 106.873 53.376C107.133 52.715 107.583 52.0865 108.222 51.4905C108.872 50.8946 109.772 50.2932 110.92 49.6863C111.451 49.4046 111.879 49.1445 112.204 48.9061C112.529 48.6677 112.768 48.4131 112.92 48.1422C113.071 47.8713 113.147 47.5408 113.147 47.1507C113.147 46.7498 113.06 46.403 112.887 46.1104C112.714 45.807 112.454 45.5686 112.107 45.3953C111.771 45.2219 111.348 45.1352 110.839 45.1352C110.026 45.1352 109.382 45.3465 108.905 45.7691C108.439 46.1917 108.146 46.7931 108.027 47.5733L106.564 47.4758C106.694 46.3488 107.128 45.4494 107.865 44.7776C108.601 44.1058 109.593 43.7698 110.839 43.7698C111.63 43.7698 112.307 43.9107 112.871 44.1925C113.434 44.4742 113.862 44.8697 114.155 45.379C114.458 45.8775 114.61 46.4572 114.61 47.1182C114.61 47.7033 114.512 48.2126 114.317 48.6461C114.122 49.0687 113.792 49.4642 113.326 49.8326C112.871 50.201 112.242 50.5966 111.44 51.0192C110.4 51.5718 109.609 52.1299 109.067 52.6933C108.536 53.2568 108.255 53.7607 108.222 54.205H114.61V55.5703H106.499ZM120.041 58.2035C119.423 58.2035 118.865 58.1005 118.367 57.8946C117.868 57.6888 117.451 57.3962 117.115 57.0169C116.779 56.6377 116.552 56.1988 116.433 55.7003L117.863 55.6028C117.993 56.0038 118.221 56.318 118.546 56.5456C118.882 56.784 119.38 56.9031 120.041 56.9031C120.821 56.9031 121.417 56.746 121.829 56.4318C122.252 56.1175 122.463 55.6462 122.463 55.0177V53.6198C122.257 54.0749 121.927 54.4379 121.471 54.7088C121.016 54.9797 120.507 55.1152 119.944 55.1152C119.218 55.1152 118.567 54.9364 117.993 54.5788C117.43 54.2212 116.985 53.7282 116.66 53.0997C116.346 52.4712 116.189 51.7506 116.189 50.9379C116.189 50.1144 116.346 49.3938 116.66 48.7761C116.975 48.1476 117.408 47.6546 117.961 47.297C118.524 46.9394 119.163 46.7606 119.879 46.7606C120.485 46.7606 121.027 46.9015 121.504 47.1832C121.992 47.4649 122.333 47.8442 122.528 48.321V46.9556H123.828V54.9852C123.828 55.657 123.677 56.2313 123.373 56.7081C123.07 57.1957 122.636 57.5641 122.073 57.8134C121.509 58.0734 120.832 58.2035 120.041 58.2035ZM120.009 53.8149C120.745 53.8149 121.336 53.5602 121.78 53.0509C122.225 52.5308 122.452 51.8265 122.463 50.9379C122.474 50.3419 122.376 49.8326 122.17 49.41C121.975 48.9766 121.688 48.6461 121.309 48.4185C120.941 48.1801 120.507 48.0609 120.009 48.0609C119.25 48.0609 118.66 48.321 118.237 48.8411C117.825 49.3504 117.619 50.0493 117.619 50.9379C117.619 51.8265 117.831 52.5308 118.253 53.0509C118.687 53.5602 119.272 53.8149 120.009 53.8149ZM129.512 57.3583L134.307 43.3797H135.607L130.812 57.3583H129.512ZM145.319 55.8304C144.495 55.8304 143.758 55.7003 143.108 55.4403C142.469 55.1802 141.965 54.7955 141.596 54.2862C141.239 53.7769 141.06 53.1485 141.06 52.4008C141.06 51.5664 141.309 50.8783 141.808 50.3365C142.306 49.7839 142.967 49.41 143.791 49.215L143.823 49.54C143.162 49.3558 142.626 49.0578 142.214 48.6461C141.813 48.2235 141.613 47.6546 141.613 46.9394C141.613 46.3326 141.764 45.7908 142.068 45.314C142.382 44.8372 142.815 44.4634 143.368 44.1925C143.921 43.9107 144.571 43.7698 145.319 43.7698C146.066 43.7698 146.716 43.9107 147.269 44.1925C147.833 44.4634 148.266 44.8372 148.569 45.314C148.873 45.7908 149.025 46.3326 149.025 46.9394C149.025 47.6546 148.824 48.2235 148.423 48.6461C148.022 49.0578 147.486 49.3558 146.814 49.54L146.847 49.215C147.681 49.41 148.342 49.7839 148.83 50.3365C149.328 50.8783 149.577 51.5664 149.577 52.4008C149.577 53.1485 149.393 53.7769 149.025 54.2862C148.667 54.7955 148.169 55.1802 147.529 55.4403C146.89 55.7003 146.153 55.8304 145.319 55.8304ZM145.319 54.465C146.175 54.465 146.852 54.2917 147.35 53.9449C147.86 53.5873 148.114 53.0455 148.114 52.3195C148.114 51.6477 147.887 51.1113 147.432 50.7103C146.987 50.2986 146.283 50.0927 145.319 50.0927C144.365 50.0927 143.661 50.2986 143.206 50.7103C142.75 51.1113 142.523 51.6477 142.523 52.3195C142.523 53.0455 142.772 53.5873 143.271 53.9449C143.78 54.2917 144.463 54.465 145.319 54.465ZM145.319 48.7924C146.034 48.7924 146.586 48.6407 146.977 48.3372C147.367 48.023 147.562 47.557 147.562 46.9394C147.562 46.3868 147.372 45.9479 146.993 45.6228C146.614 45.2977 146.055 45.1352 145.319 45.1352C144.593 45.1352 144.035 45.2977 143.644 45.6228C143.265 45.9479 143.076 46.3868 143.076 46.9394C143.076 47.557 143.271 48.023 143.661 48.3372C144.051 48.6407 144.603 48.7924 145.319 48.7924ZM155.502 55.8304C154.57 55.8304 153.763 55.5866 153.08 55.0989C152.398 54.6113 151.867 53.9178 151.487 53.0184C151.119 52.119 150.935 51.0517 150.935 49.8164C150.935 48.5811 151.119 47.5137 151.487 46.6143C151.867 45.7041 152.398 45.0052 153.08 44.5175C153.763 44.0191 154.57 43.7698 155.502 43.7698C156.445 43.7698 157.258 44.0191 157.94 44.5175C158.623 45.0052 159.148 45.6987 159.517 46.5981C159.896 47.4974 160.086 48.5702 160.086 49.8164C160.086 51.0517 159.896 52.119 159.517 53.0184C159.148 53.9178 158.623 54.6113 157.94 55.0989C157.258 55.5866 156.445 55.8304 155.502 55.8304ZM155.502 54.465C156.499 54.465 157.268 54.0641 157.81 53.2622C158.352 52.4495 158.623 51.3009 158.623 49.8164C158.623 48.8194 158.498 47.9742 158.249 47.2807C158.011 46.5764 157.658 46.0454 157.192 45.6878C156.737 45.3194 156.174 45.1352 155.502 45.1352C154.841 45.1352 154.278 45.3194 153.812 45.6878C153.357 46.0454 153.004 46.5764 152.755 47.2807C152.517 47.9742 152.398 48.8194 152.398 49.8164C152.398 51.3009 152.668 52.4495 153.21 53.2622C153.752 54.0641 154.516 54.465 155.502 54.465ZM164.066 49.6213C163.34 49.6213 162.739 49.3775 162.262 48.8899C161.796 48.3914 161.563 47.6817 161.563 46.7606C161.563 45.8287 161.796 45.1189 162.262 44.6313C162.739 44.1437 163.34 43.8999 164.066 43.8999C164.803 43.8999 165.405 44.1437 165.871 44.6313C166.336 45.1189 166.569 45.8287 166.569 46.7606C166.569 47.6817 166.336 48.3914 165.871 48.8899C165.405 49.3775 164.803 49.6213 164.066 49.6213ZM164.066 48.6136C164.511 48.6136 164.841 48.451 165.058 48.1259C165.285 47.8009 165.399 47.3457 165.399 46.7606C165.399 46.1755 165.285 45.7203 165.058 45.3953C164.841 45.0702 164.511 44.9076 164.066 44.9076C163.633 44.9076 163.302 45.0702 163.075 45.3953C162.847 45.7203 162.733 46.1755 162.733 46.7606C162.733 47.3457 162.847 47.8009 163.075 48.1259C163.302 48.451 163.633 48.6136 164.066 48.6136ZM170.665 55.7003C169.939 55.7003 169.338 55.4565 168.861 54.9689C168.395 54.4705 168.162 53.7607 168.162 52.8396C168.162 51.9077 168.395 51.198 168.861 50.7103C169.338 50.2227 169.939 49.9789 170.665 49.9789C171.402 49.9789 172.004 50.2227 172.47 50.7103C172.936 51.198 173.169 51.9077 173.169 52.8396C173.169 53.7607 172.936 54.4705 172.47 54.9689C172.004 55.4565 171.402 55.7003 170.665 55.7003ZM170.665 54.6926C171.11 54.6926 171.44 54.5301 171.657 54.205C171.885 53.8799 171.998 53.4248 171.998 52.8396C171.998 52.2545 171.885 51.7994 171.657 51.4743C171.44 51.1492 171.11 50.9867 170.665 50.9867C170.232 50.9867 169.902 51.1492 169.674 51.4743C169.446 51.7994 169.333 52.2545 169.333 52.8396C169.333 53.4248 169.446 53.8799 169.674 54.205C169.902 54.5301 170.232 54.6926 170.665 54.6926ZM162.733 55.5703L170.698 44.0299H171.998L164.034 55.5703H162.733Z" fill="#BABABA"/>
<rect x="14.5177" y="67.5177" width="239.965" height="73.4343" rx="11.9063" fill="#FBFBFB"/>
<rect x="14.5177" y="67.5177" width="239.965" height="73.4343" rx="11.9063" stroke="#E3E3E3" stroke-width="1.03533"/>
<rect x="24.9133" y="77.9135" width="52.6429" height="52.6429" rx="26.3215" fill="#FBFBFB"/>
<rect x="24.9133" y="77.9135" width="52.6429" height="52.6429" rx="26.3215" stroke="#E3E3E3" stroke-width="1.12006"/>
<g clip-path="url(#clip1_542_8816)">
<path d="M53.8476 112.074V113.194C53.8476 114.637 52.6767 115.808 51.2341 115.808C49.7914 115.808 48.6206 114.637 48.6206 113.194V112.074" stroke="#BABABA" stroke-width="2.24012" stroke-linecap="round" stroke-linejoin="round"/>
<path d="M46.1385 95.2941L45.2096 94.5563C44.1791 93.7379 42.6678 93.9799 41.945 95.0805L39.3255 99.065C38.1831 100.803 39.4301 103.114 41.5089 103.114H43.2905" stroke="#BABABA" stroke-width="2.24012" stroke-linecap="round" stroke-linejoin="round"/>
<path d="M56.3296 95.2941L57.2585 94.5563C58.289 93.7379 59.8003 93.9799 60.5231 95.0805L63.1426 99.065C64.285 100.803 63.038 103.114 60.9592 103.114H59.1775" stroke="#BABABA" stroke-width="2.24012" stroke-linecap="round" stroke-linejoin="round"/>
<path d="M59.0743 105.124V101.249C59.0743 96.9192 55.5648 93.4082 51.2339 93.4082C46.903 93.4082 43.3934 96.9192 43.3934 101.249V105.124C42.923 105.832 42.6467 106.68 42.6467 107.596C42.6467 110.07 44.6524 112.076 47.127 112.076C48.9669 112.076 50.5439 110.965 51.2339 109.379C51.9238 110.965 53.5009 112.076 55.3408 112.076C57.8154 112.076 59.821 110.07 59.821 107.596C59.821 106.682 59.5447 105.833 59.0743 105.124Z" stroke="#BABABA" stroke-width="2.24012" stroke-linecap="round" stroke-linejoin="round"/>
<path d="M49.3669 106.85H53.1005L51.2337 109.463L49.3669 106.85Z" stroke="#BABABA" stroke-width="2.24012" stroke-linecap="round" stroke-linejoin="round"/>
<path d="M47.5003 104.235C48.325 104.235 48.9937 103.566 48.9937 102.741C48.9937 101.917 48.325 101.248 47.5003 101.248C46.6755 101.248 46.0068 101.917 46.0068 102.741C46.0068 103.566 46.6755 104.235 47.5003 104.235Z" fill="#BABABA"/>
<path d="M54.9678 104.235C55.7926 104.235 56.4612 103.566 56.4612 102.741C56.4612 101.917 55.7926 101.248 54.9678 101.248C54.143 101.248 53.4744 101.917 53.4744 102.741C53.4744 103.566 54.143 104.235 54.9678 104.235Z" fill="#BABABA"/>
</g>
<path d="M90.8581 98.0742V85.3503H92.7936V97.3574L91.7721 96.3H98.9942V98.0742H90.8581ZM100.93 98.0742V88.5402H102.829V98.0742H100.93ZM100.894 87.1603V85.2607H102.883V87.1603H100.894ZM107.863 98.0742L104.386 88.5402H106.411L109.01 96.1388L111.608 88.5402H113.651L110.175 98.0742H107.863ZM118.673 98.2893C117.753 98.2893 116.952 98.0862 116.271 97.68C115.602 97.2737 115.083 96.6943 114.712 95.9416C114.342 95.1889 114.157 94.3108 114.157 93.3072C114.157 92.3037 114.342 91.4315 114.712 90.6908C115.083 89.9381 115.596 89.3586 116.253 88.9524C116.922 88.5343 117.711 88.3252 118.619 88.3252C119.491 88.3252 120.256 88.5283 120.913 88.9345C121.57 89.3288 122.078 89.9022 122.436 90.6549C122.807 91.4076 122.992 92.3156 122.992 93.3789V93.8628H116.146C116.194 94.7947 116.439 95.4936 116.881 95.9595C117.335 96.4255 117.938 96.6585 118.691 96.6585C119.264 96.6585 119.73 96.527 120.089 96.2642C120.459 96.0014 120.722 95.6489 120.877 95.2069L122.848 95.3323C122.597 96.2164 122.102 96.9332 121.361 97.4828C120.632 98.0205 119.736 98.2893 118.673 98.2893ZM116.146 92.4291H120.967C120.907 91.5808 120.662 90.9536 120.232 90.5474C119.814 90.1412 119.276 89.9381 118.619 89.9381C117.95 89.9381 117.394 90.1531 116.952 90.5832C116.522 91.0014 116.253 91.6167 116.146 92.4291ZM124.841 98.0742V88.5402H126.579L126.651 91.0671L126.49 91.0133C126.621 90.1531 126.884 89.5259 127.278 89.1316C127.685 88.7374 128.228 88.5402 128.909 88.5402H129.823V90.2427H128.909C128.431 90.2427 128.031 90.3204 127.708 90.4757C127.386 90.631 127.141 90.87 126.974 91.1926C126.818 91.5151 126.741 91.9333 126.741 92.447V98.0742H124.841Z" fill="#BABABA"/>
<path d="M96.6824 122.275V119.516H90.2129V118.118L96.5749 109.551H98.2236V118.01H99.8007V119.516H98.2236V122.275H96.6824ZM92.0767 118.01H96.6824V111.917L92.0767 118.01ZM101.356 122.275V120.25H103.381V122.275H101.356ZM109.636 122.562C108.74 122.562 107.963 122.413 107.306 122.114C106.661 121.815 106.147 121.397 105.765 120.86C105.394 120.322 105.179 119.701 105.12 118.996L106.732 118.888C106.828 119.605 107.133 120.149 107.646 120.519C108.172 120.878 108.835 121.057 109.636 121.057C110.532 121.057 111.243 120.806 111.768 120.304C112.294 119.79 112.557 119.085 112.557 118.189C112.557 117.592 112.437 117.078 112.198 116.648C111.971 116.206 111.637 115.866 111.195 115.627C110.753 115.388 110.221 115.268 109.6 115.268C109.014 115.268 108.483 115.394 108.005 115.645C107.527 115.896 107.186 116.248 106.983 116.702H105.335L106.177 109.551H113.309V111.057H107.593L107.019 115.752L106.732 115.465C106.924 115.095 107.175 114.79 107.485 114.551C107.808 114.301 108.172 114.115 108.578 113.996C108.996 113.864 109.433 113.799 109.887 113.799C110.735 113.799 111.482 113.99 112.127 114.372C112.772 114.743 113.274 115.262 113.632 115.931C113.99 116.588 114.17 117.341 114.17 118.189C114.17 119.038 113.979 119.796 113.596 120.465C113.214 121.122 112.682 121.636 112.001 122.007C111.32 122.377 110.532 122.562 109.636 122.562ZM120.173 125.179C119.492 125.179 118.877 125.065 118.327 124.838C117.777 124.611 117.317 124.289 116.947 123.87C116.577 123.452 116.326 122.968 116.194 122.419L117.771 122.311C117.915 122.753 118.166 123.1 118.524 123.351C118.894 123.613 119.444 123.745 120.173 123.745C121.033 123.745 121.69 123.572 122.144 123.225C122.61 122.879 122.843 122.359 122.843 121.666V120.125C122.616 120.627 122.252 121.027 121.75 121.326C121.248 121.624 120.687 121.774 120.065 121.774C119.265 121.774 118.548 121.576 117.915 121.182C117.293 120.788 116.804 120.244 116.445 119.551C116.099 118.858 115.926 118.064 115.926 117.168C115.926 116.26 116.099 115.465 116.445 114.784C116.792 114.091 117.27 113.548 117.879 113.154C118.5 112.759 119.205 112.562 119.994 112.562C120.663 112.562 121.26 112.718 121.786 113.028C122.323 113.339 122.7 113.757 122.915 114.283V112.777H124.348V121.63C124.348 122.371 124.181 123.004 123.847 123.53C123.512 124.067 123.034 124.474 122.413 124.748C121.792 125.035 121.045 125.179 120.173 125.179ZM120.137 120.34C120.949 120.34 121.6 120.059 122.09 119.498C122.58 118.924 122.831 118.148 122.843 117.168C122.855 116.511 122.747 115.949 122.52 115.483C122.305 115.005 121.989 114.641 121.571 114.39C121.164 114.127 120.687 113.996 120.137 113.996C119.301 113.996 118.65 114.283 118.184 114.856C117.73 115.418 117.503 116.188 117.503 117.168C117.503 118.148 117.736 118.924 118.201 119.498C118.679 120.059 119.325 120.34 120.137 120.34ZM130.615 124.247L135.902 108.835H137.335L132.049 124.247H130.615ZM148.222 122.562C147.326 122.562 146.549 122.413 145.892 122.114C145.247 121.815 144.733 121.397 144.351 120.86C143.981 120.322 143.765 119.701 143.706 118.996L145.319 118.888C145.414 119.605 145.719 120.149 146.233 120.519C146.758 120.878 147.421 121.057 148.222 121.057C149.118 121.057 149.829 120.806 150.354 120.304C150.88 119.79 151.143 119.085 151.143 118.189C151.143 117.592 151.023 117.078 150.785 116.648C150.558 116.206 150.223 115.866 149.781 115.627C149.339 115.388 148.807 115.268 148.186 115.268C147.601 115.268 147.069 115.394 146.591 115.645C146.113 115.896 145.773 116.248 145.57 116.702H143.921L144.763 109.551H151.896V111.057H146.179L145.605 115.752L145.319 115.465C145.51 115.095 145.761 114.79 146.071 114.551C146.394 114.301 146.758 114.115 147.164 113.996C147.583 113.864 148.019 113.799 148.473 113.799C149.321 113.799 150.068 113.99 150.713 114.372C151.358 114.743 151.86 115.262 152.218 115.931C152.577 116.588 152.756 117.341 152.756 118.189C152.756 119.038 152.565 119.796 152.182 120.465C151.8 121.122 151.268 121.636 150.587 122.007C149.906 122.377 149.118 122.562 148.222 122.562ZM157.272 115.716C156.471 115.716 155.808 115.447 155.282 114.91C154.769 114.36 154.512 113.578 154.512 112.562C154.512 111.535 154.769 110.752 155.282 110.215C155.808 109.677 156.471 109.408 157.272 109.408C158.084 109.408 158.747 109.677 159.261 110.215C159.774 110.752 160.031 111.535 160.031 112.562C160.031 113.578 159.774 114.36 159.261 114.91C158.747 115.447 158.084 115.716 157.272 115.716ZM157.272 114.605C157.761 114.605 158.126 114.426 158.365 114.068C158.616 113.709 158.741 113.207 158.741 112.562C158.741 111.917 158.616 111.415 158.365 111.057C158.126 110.698 157.761 110.519 157.272 110.519C156.794 110.519 156.429 110.698 156.178 111.057C155.927 111.415 155.802 111.917 155.802 112.562C155.802 113.207 155.927 113.709 156.178 114.068C156.429 114.426 156.794 114.605 157.272 114.605ZM164.547 122.419C163.747 122.419 163.084 122.15 162.558 121.612C162.044 121.063 161.788 120.28 161.788 119.265C161.788 118.237 162.044 117.455 162.558 116.917C163.084 116.379 163.747 116.111 164.547 116.111C165.36 116.111 166.023 116.379 166.537 116.917C167.05 117.455 167.307 118.237 167.307 119.265C167.307 120.28 167.05 121.063 166.537 121.612C166.023 122.15 165.36 122.419 164.547 122.419ZM164.547 121.308C165.037 121.308 165.402 121.128 165.641 120.77C165.892 120.412 166.017 119.91 166.017 119.265C166.017 118.62 165.892 118.118 165.641 117.759C165.402 117.401 165.037 117.222 164.547 117.222C164.07 117.222 163.705 117.401 163.454 117.759C163.203 118.118 163.078 118.62 163.078 119.265C163.078 119.91 163.203 120.412 163.454 120.77C163.705 121.128 164.07 121.308 164.547 121.308ZM155.802 122.275L164.583 109.551H166.017L157.236 122.275H155.802Z" fill="#BABABA"/>
<rect x="17.5177" y="19.5177" width="232.965" height="73.9383" rx="11.9063" fill="#FBFBFB"/>
<rect x="17.5177" y="19.5177" width="232.965" height="73.9383" rx="11.9063" stroke="#E3E3E3" stroke-width="1.03533"/>
<rect x="27.9131" y="30.1655" width="52.6429" height="52.6429" rx="26.3215" fill="#FBFBFB"/>
<rect x="27.9131" y="30.1655" width="52.6429" height="52.6429" rx="26.3215" stroke="#E3E3E3" stroke-width="1.12006"/>
<path d="M54.2343 53.8739C56.5025 53.8739 58.3412 52.0352 58.3412 49.7671C58.3412 47.4989 56.5025 45.6602 54.2343 45.6602C51.9662 45.6602 50.1274 47.4989 50.1274 49.7671C50.1274 52.0352 51.9662 53.8739 54.2343 53.8739Z" stroke="#BABABA" stroke-width="2.24012" stroke-linecap="round" stroke-linejoin="round"/>
<path d="M61.3457 66.2185C62.6301 65.8137 63.3051 64.395 62.76 63.1644C61.3114 59.8923 58.0423 57.6074 54.2341 57.6074C50.4259 57.6074 47.1568 59.8923 45.7082 63.1644C45.1631 64.3965 45.8381 65.8137 47.1224 66.2185C48.9519 66.7949 51.3727 67.3146 54.2341 67.3146C57.0955 67.3146 59.5163 66.7949 61.3457 66.2185Z" stroke="#BABABA" stroke-width="2.24012" stroke-linecap="round" stroke-linejoin="round"/>
<path d="M93.9654 50.3262V37.6023H96.1159L100.184 48.6416L104.234 37.6023H106.385V50.3262H104.843V40.4696L101.205 50.3262H99.1446L95.5066 40.4696V50.3262H93.9654ZM113.05 50.5412C112.154 50.5412 111.378 50.3381 110.721 49.9319C110.076 49.5257 109.574 48.9522 109.215 48.2115C108.869 47.4588 108.696 46.5807 108.696 45.5771C108.696 44.5735 108.869 43.7014 109.215 42.9606C109.574 42.2199 110.07 41.6464 110.703 41.2402C111.348 40.8221 112.107 40.613 112.979 40.613C113.803 40.613 114.532 40.8101 115.165 41.2044C115.798 41.5867 116.288 42.1482 116.635 42.889C116.993 43.6297 117.172 44.5317 117.172 45.595V46.0431H110.273C110.332 47.0586 110.601 47.8232 111.079 48.3369C111.569 48.8507 112.226 49.1075 113.05 49.1075C113.672 49.1075 114.179 48.9642 114.574 48.6774C114.98 48.3788 115.261 47.9905 115.416 47.5126L117.029 47.638C116.778 48.4863 116.3 49.1852 115.595 49.7348C114.902 50.2724 114.054 50.5412 113.05 50.5412ZM110.273 44.7169H115.524C115.452 43.797 115.183 43.1219 114.717 42.6918C114.263 42.2617 113.684 42.0467 112.979 42.0467C112.25 42.0467 111.647 42.2737 111.169 42.7277C110.703 43.1697 110.404 43.8328 110.273 44.7169ZM121.892 50.5412C120.913 50.5412 120.13 50.3142 119.545 49.8602C118.971 49.4062 118.684 48.773 118.684 47.9606C118.684 47.1482 118.923 46.509 119.401 46.0431C119.879 45.5771 120.638 45.2486 121.677 45.0574L125.046 44.4302C125.046 43.6297 124.855 43.0323 124.473 42.6381C124.103 42.2438 123.541 42.0467 122.788 42.0467C122.131 42.0467 121.612 42.196 121.229 42.4947C120.847 42.7814 120.584 43.1996 120.441 43.7492L118.846 43.6237C119.025 42.7277 119.455 42.0049 120.136 41.4553C120.829 40.8938 121.713 40.613 122.788 40.613C124.007 40.613 124.939 40.9595 125.584 41.6524C126.229 42.3334 126.552 43.2772 126.552 44.4839V48.4086C126.552 48.6237 126.588 48.779 126.659 48.8746C126.743 48.9582 126.874 49 127.054 49H127.43V50.3262C127.382 50.3381 127.304 50.3441 127.197 50.3441C127.089 50.356 126.976 50.362 126.856 50.362C126.426 50.362 126.074 50.2963 125.799 50.1649C125.536 50.0215 125.345 49.8065 125.226 49.5197C125.106 49.221 125.046 48.8328 125.046 48.3549L125.226 48.3907C125.142 48.7969 124.939 49.1673 124.616 49.5018C124.294 49.8244 123.893 50.0813 123.416 50.2724C122.938 50.4516 122.43 50.5412 121.892 50.5412ZM122.036 49.2151C122.669 49.2151 123.207 49.0956 123.649 48.8567C124.103 48.6058 124.449 48.2712 124.688 47.8531C124.927 47.423 125.046 46.9451 125.046 46.4194V45.7384L121.964 46.3119C121.319 46.4313 120.871 46.6165 120.62 46.8674C120.381 47.1064 120.262 47.423 120.262 47.8172C120.262 48.2593 120.417 48.6058 120.727 48.8567C121.05 49.0956 121.486 49.2151 122.036 49.2151ZM131.901 50.3262C131.041 50.3262 130.402 50.129 129.984 49.7348C129.578 49.3405 129.374 48.7252 129.374 47.8889V38.6058H130.88V47.8531C130.88 48.2832 130.975 48.5819 131.167 48.7491C131.358 48.9164 131.65 49 132.045 49H133.407V50.3262H131.901ZM127.977 42.1542V40.828H133.407V42.1542H127.977ZM142.233 50.5412C141.254 50.5412 140.471 50.3142 139.886 49.8602C139.312 49.4062 139.025 48.773 139.025 47.9606C139.025 47.1482 139.264 46.509 139.742 46.0431C140.22 45.5771 140.979 45.2486 142.018 45.0574L145.387 44.4302C145.387 43.6297 145.196 43.0323 144.814 42.6381C144.444 42.2438 143.882 42.0467 143.129 42.0467C142.472 42.0467 141.953 42.196 141.57 42.4947C141.188 42.7814 140.925 43.1996 140.782 43.7492L139.187 43.6237C139.366 42.7277 139.796 42.0049 140.477 41.4553C141.17 40.8938 142.054 40.613 143.129 40.613C144.348 40.613 145.28 40.9595 145.925 41.6524C146.57 42.3334 146.893 43.2772 146.893 44.4839V48.4086C146.893 48.6237 146.929 48.779 147 48.8746C147.084 48.9582 147.215 49 147.395 49H147.771V50.3262C147.723 50.3381 147.645 50.3441 147.538 50.3441C147.43 50.356 147.317 50.362 147.197 50.362C146.767 50.362 146.415 50.2963 146.14 50.1649C145.877 50.0215 145.686 49.8065 145.567 49.5197C145.447 49.221 145.387 48.8328 145.387 48.3549L145.567 48.3907C145.483 48.7969 145.28 49.1673 144.957 49.5018C144.635 49.8244 144.235 50.0813 143.757 50.2724C143.279 50.4516 142.771 50.5412 142.233 50.5412ZM142.377 49.2151C143.01 49.2151 143.548 49.0956 143.99 48.8567C144.444 48.6058 144.79 48.2712 145.029 47.8531C145.268 47.423 145.387 46.9451 145.387 46.4194V45.7384L142.305 46.3119C141.66 46.4313 141.212 46.6165 140.961 46.8674C140.722 47.1064 140.603 47.423 140.603 47.8172C140.603 48.2593 140.758 48.6058 141.068 48.8567C141.391 49.0956 141.827 49.2151 142.377 49.2151ZM149.571 50.3262V40.828H150.951L151.004 43.2474L150.825 43.0861C150.945 42.5246 151.154 42.0646 151.452 41.7062C151.751 41.3358 152.11 41.061 152.528 40.8818C152.958 40.7026 153.418 40.613 153.908 40.613C154.636 40.613 155.234 40.7743 155.7 41.0969C156.178 41.4194 156.53 41.8555 156.757 42.4051C156.996 42.9427 157.115 43.5461 157.115 44.2151V50.3262H155.61V44.6452C155.61 44.0598 155.538 43.57 155.395 43.1757C155.264 42.7695 155.049 42.4648 154.75 42.2617C154.451 42.0467 154.063 41.9391 153.585 41.9391C152.856 41.9391 152.253 42.1721 151.775 42.6381C151.309 43.0921 151.076 43.7611 151.076 44.6452V50.3262H149.571ZM162.965 50.5412C162.141 50.5412 161.424 50.3381 160.814 49.9319C160.217 49.5257 159.757 48.9522 159.435 48.2115C159.112 47.4708 158.951 46.5926 158.951 45.5771C158.951 44.5616 159.112 43.6835 159.435 42.9427C159.757 42.202 160.217 41.6285 160.814 41.2223C161.424 40.8161 162.141 40.613 162.965 40.613C163.598 40.613 164.178 40.7504 164.703 41.0252C165.229 41.288 165.623 41.6644 165.886 42.1542V37.6023H167.391V50.3262H166.029L165.976 48.8925C165.713 49.4062 165.313 49.8124 164.775 50.1111C164.237 50.3979 163.634 50.5412 162.965 50.5412ZM163.27 49.1075C163.831 49.1075 164.303 48.9642 164.685 48.6774C165.08 48.3907 165.378 47.9845 165.581 47.4588C165.785 46.9212 165.886 46.2939 165.886 45.5771C165.886 44.8364 165.785 44.2032 165.581 43.6775C165.378 43.1518 165.08 42.7516 164.685 42.4768C164.303 42.19 163.831 42.0467 163.27 42.0467C162.433 42.0467 161.764 42.3633 161.263 42.9965C160.773 43.6177 160.528 44.478 160.528 45.5771C160.528 46.6643 160.773 47.5245 161.263 48.1577C161.764 48.7909 162.433 49.1075 163.27 49.1075ZM178.729 50.5412C178.072 50.5412 177.487 50.3979 176.973 50.1111C176.459 49.8124 176.065 49.4062 175.79 48.8925L175.737 50.3262H174.375V37.6023H175.88V42.1542C176.119 41.7599 176.489 41.4075 176.991 41.0969C177.493 40.7743 178.072 40.613 178.729 40.613C179.566 40.613 180.288 40.8161 180.898 41.2223C181.507 41.6285 181.979 42.202 182.314 42.9427C182.648 43.6835 182.815 44.5616 182.815 45.5771C182.815 46.5926 182.648 47.4708 182.314 48.2115C181.979 48.9522 181.507 49.5257 180.898 49.9319C180.288 50.3381 179.566 50.5412 178.729 50.5412ZM178.64 49.1075C179.44 49.1075 180.073 48.7909 180.539 48.1577C181.005 47.5245 181.238 46.6643 181.238 45.5771C181.238 44.478 181.005 43.6177 180.539 42.9965C180.073 42.3633 179.452 42.0467 178.676 42.0467C178.09 42.0467 177.588 42.19 177.17 42.4768C176.752 42.7516 176.429 43.1518 176.202 43.6775C175.987 44.2032 175.88 44.8364 175.88 45.5771C175.88 46.2939 175.987 46.9212 176.202 47.4588C176.429 47.9845 176.746 48.3907 177.152 48.6774C177.57 48.9642 178.066 49.1075 178.64 49.1075ZM188.582 50.5412C187.71 50.5412 186.945 50.3381 186.288 49.9319C185.631 49.5257 185.123 48.9522 184.765 48.2115C184.406 47.4588 184.227 46.5807 184.227 45.5771C184.227 44.5616 184.406 43.6835 184.765 42.9427C185.123 42.202 185.631 41.6285 186.288 41.2223C186.945 40.8161 187.71 40.613 188.582 40.613C189.454 40.613 190.213 40.8161 190.858 41.2223C191.515 41.6285 192.023 42.202 192.381 42.9427C192.739 43.6835 192.919 44.5616 192.919 45.5771C192.919 46.5807 192.739 47.4588 192.381 48.2115C192.023 48.9522 191.515 49.5257 190.858 49.9319C190.213 50.3381 189.454 50.5412 188.582 50.5412ZM188.582 49.1075C189.454 49.1075 190.129 48.7969 190.607 48.1757C191.097 47.5424 191.342 46.6763 191.342 45.5771C191.342 44.478 191.097 43.6177 190.607 42.9965C190.129 42.3633 189.454 42.0467 188.582 42.0467C187.71 42.0467 187.029 42.3633 186.539 42.9965C186.049 43.6177 185.804 44.478 185.804 45.5771C185.804 46.6763 186.049 47.5424 186.539 48.1757C187.029 48.7969 187.71 49.1075 188.582 49.1075ZM194.93 50.3262V40.828H196.31L196.363 43.2474L196.184 43.0861C196.304 42.5246 196.513 42.0646 196.811 41.7062C197.11 41.3358 197.469 41.061 197.887 40.8818C198.317 40.7026 198.777 40.613 199.267 40.613C199.995 40.613 200.593 40.7743 201.059 41.0969C201.537 41.4194 201.889 41.8555 202.116 42.4051C202.355 42.9427 202.475 43.5461 202.475 44.2151V50.3262H200.969V44.6452C200.969 44.0598 200.897 43.57 200.754 43.1757C200.623 42.7695 200.408 42.4648 200.109 42.2617C199.81 42.0467 199.422 41.9391 198.944 41.9391C198.215 41.9391 197.612 42.1721 197.134 42.6381C196.668 43.0921 196.435 43.7611 196.435 44.6452V50.3262H194.93ZM208.665 50.5412C207.768 50.5412 206.992 50.3381 206.335 49.9319C205.69 49.5257 205.188 48.9522 204.829 48.2115C204.483 47.4588 204.31 46.5807 204.31 45.5771C204.31 44.5735 204.483 43.7014 204.829 42.9606C205.188 42.2199 205.684 41.6464 206.317 41.2402C206.962 40.8221 207.721 40.613 208.593 40.613C209.417 40.613 210.146 40.8101 210.779 41.2044C211.412 41.5867 211.902 42.1482 212.249 42.889C212.607 43.6297 212.786 44.5317 212.786 45.595V46.0431H205.887C205.947 47.0586 206.215 47.8232 206.693 48.3369C207.183 48.8507 207.84 49.1075 208.665 49.1075C209.286 49.1075 209.794 48.9642 210.188 48.6774C210.594 48.3788 210.875 47.9905 211.03 47.5126L212.643 47.638C212.392 48.4863 211.914 49.1852 211.209 49.7348C210.516 50.2724 209.668 50.5412 208.665 50.5412ZM205.887 44.7169H211.138C211.066 43.797 210.797 43.1219 210.331 42.6918C209.877 42.2617 209.298 42.0467 208.593 42.0467C207.864 42.0467 207.261 42.2737 206.783 42.7277C206.317 43.1697 206.018 43.8328 205.887 44.7169Z" fill="#BABABA"/>
<path d="M95.865 74.5273C95.865 73.2131 96.0442 71.9049 96.4026 70.6026C96.7611 69.2884 97.2748 68.016 97.9438 66.7855C98.6248 65.5549 99.4373 64.396 100.381 63.3088H93.0335V61.8034H102.066V63.2013C101.002 64.4199 100.124 65.6266 99.4313 66.8213C98.7503 68.0041 98.2485 69.2287 97.9259 70.4951C97.6033 71.7496 97.4421 73.0937 97.4421 74.5273H95.865ZM103.678 74.5273C103.678 73.6313 103.816 72.8248 104.09 72.108C104.377 71.3792 104.873 70.6863 105.578 70.0292C106.295 69.3721 107.286 68.709 108.553 68.0399C109.138 67.7293 109.61 67.4426 109.969 67.1797C110.327 66.9169 110.59 66.6361 110.757 66.3374C110.924 66.0388 111.008 65.6744 111.008 65.2443C111.008 64.8022 110.912 64.4199 110.721 64.0973C110.53 63.7628 110.243 63.5 109.861 63.3088C109.491 63.1176 109.025 63.0221 108.463 63.0221C107.567 63.0221 106.856 63.255 106.331 63.721C105.817 64.1869 105.494 64.85 105.363 65.7102L103.75 65.6027C103.893 64.3602 104.371 63.3685 105.184 62.6278C105.996 61.8871 107.089 61.5167 108.463 61.5167C109.335 61.5167 110.082 61.672 110.703 61.9826C111.325 62.2933 111.796 62.7294 112.119 63.2909C112.454 63.8405 112.621 64.4796 112.621 65.2084C112.621 65.8536 112.513 66.4151 112.298 66.893C112.083 67.3589 111.719 67.795 111.205 68.2012C110.703 68.6074 110.01 69.0435 109.126 69.5095C107.979 70.1188 107.107 70.7341 106.51 71.3553C105.924 71.9766 105.614 72.5321 105.578 73.022H112.621V74.5273H103.678ZM118.609 77.4305C117.928 77.4305 117.313 77.317 116.763 77.09C116.214 76.863 115.754 76.5405 115.383 76.1223C115.013 75.7042 114.762 75.2203 114.631 74.6707L116.208 74.5632C116.351 75.0052 116.602 75.3517 116.96 75.6026C117.331 75.8654 117.88 75.9969 118.609 75.9969C119.469 75.9969 120.126 75.8236 120.58 75.4772C121.046 75.1307 121.279 74.611 121.279 73.918V72.3768C121.052 72.8786 120.688 73.2788 120.186 73.5775C119.684 73.8762 119.123 74.0256 118.501 74.0256C117.701 74.0256 116.984 73.8284 116.351 73.4342C115.73 73.0399 115.24 72.4963 114.881 71.8034C114.535 71.1104 114.362 70.3159 114.362 69.4199C114.362 68.5119 114.535 67.7174 114.881 67.0364C115.228 66.3434 115.706 65.7998 116.315 65.4056C116.936 65.0113 117.641 64.8142 118.43 64.8142C119.099 64.8142 119.696 64.9695 120.222 65.2801C120.76 65.5907 121.136 66.0089 121.351 66.5346V65.0292H122.785V73.8822C122.785 74.6229 122.617 75.2561 122.283 75.7818C121.948 76.3194 121.47 76.7257 120.849 77.0004C120.228 77.2872 119.481 77.4305 118.609 77.4305ZM118.573 72.5919C119.386 72.5919 120.037 72.3111 120.527 71.7496C121.016 71.1761 121.267 70.3995 121.279 69.4199C121.291 68.7628 121.184 68.2012 120.957 67.7353C120.742 67.2574 120.425 66.893 120.007 66.6421C119.601 66.3793 119.123 66.2478 118.573 66.2478C117.737 66.2478 117.086 66.5346 116.62 67.1081C116.166 67.6696 115.939 68.4402 115.939 69.4199C115.939 70.3995 116.172 71.1761 116.638 71.7496C117.116 72.3111 117.761 72.5919 118.573 72.5919ZM129.051 76.4987L134.338 61.0866H135.772L130.485 76.4987H129.051ZM146.479 74.8141C145.571 74.8141 144.758 74.6707 144.042 74.384C143.337 74.0972 142.781 73.6731 142.375 73.1116C141.981 72.5501 141.784 71.8571 141.784 71.0327C141.784 70.1128 142.058 69.3541 142.608 68.7568C143.157 68.1475 143.886 67.7353 144.794 67.5202L144.83 67.8787C144.101 67.6755 143.51 67.347 143.056 66.893C142.614 66.4271 142.393 65.7998 142.393 65.0113C142.393 64.3422 142.56 63.7449 142.895 63.2192C143.241 62.6935 143.719 62.2813 144.328 61.9826C144.938 61.672 145.654 61.5167 146.479 61.5167C147.303 61.5167 148.02 61.672 148.629 61.9826C149.251 62.2813 149.728 62.6935 150.063 63.2192C150.398 63.7449 150.565 64.3422 150.565 65.0113C150.565 65.7998 150.344 66.4271 149.902 66.893C149.46 67.347 148.868 67.6755 148.128 67.8787L148.163 67.5202C149.083 67.7353 149.812 68.1475 150.35 68.7568C150.899 69.3541 151.174 70.1128 151.174 71.0327C151.174 71.8571 150.971 72.5501 150.565 73.1116C150.171 73.6731 149.621 74.0972 148.916 74.384C148.211 74.6707 147.399 74.8141 146.479 74.8141ZM146.479 73.3087C147.423 73.3087 148.169 73.1176 148.719 72.7352C149.28 72.341 149.561 71.7436 149.561 70.9431C149.561 70.2024 149.31 69.611 148.809 69.169C148.319 68.715 147.542 68.488 146.479 68.488C145.427 68.488 144.651 68.715 144.149 69.169C143.647 69.611 143.396 70.2024 143.396 70.9431C143.396 71.7436 143.671 72.341 144.221 72.7352C144.782 73.1176 145.535 73.3087 146.479 73.3087ZM146.479 67.0543C147.267 67.0543 147.877 66.887 148.307 66.5525C148.737 66.206 148.952 65.6923 148.952 65.0113C148.952 64.402 148.743 63.9181 148.325 63.5597C147.907 63.2013 147.291 63.0221 146.479 63.0221C145.678 63.0221 145.063 63.2013 144.633 63.5597C144.215 63.9181 144.006 64.402 144.006 65.0113C144.006 65.6923 144.221 66.206 144.651 66.5525C145.081 66.887 145.69 67.0543 146.479 67.0543ZM157.707 74.8141C156.679 74.8141 155.789 74.5453 155.036 74.0076C154.284 73.47 153.698 72.7054 153.28 71.7137C152.874 70.7221 152.671 69.5453 152.671 68.1833C152.671 66.8213 152.874 65.6445 153.28 64.6529C153.698 63.6493 154.284 62.8787 155.036 62.3411C155.789 61.7915 156.679 61.5167 157.707 61.5167C158.746 61.5167 159.642 61.7915 160.395 62.3411C161.147 62.8787 161.727 63.6433 162.133 64.635C162.551 65.6266 162.76 66.8094 162.76 68.1833C162.76 69.5453 162.551 70.7221 162.133 71.7137C161.727 72.7054 161.147 73.47 160.395 74.0076C159.642 74.5453 158.746 74.8141 157.707 74.8141ZM157.707 73.3087C158.806 73.3087 159.654 72.8667 160.251 71.9826C160.849 71.0865 161.147 69.8201 161.147 68.1833C161.147 67.0842 161.01 66.1523 160.735 65.3876C160.472 64.6111 160.084 64.0256 159.57 63.6314C159.069 63.2252 158.447 63.0221 157.707 63.0221C156.978 63.0221 156.357 63.2252 155.843 63.6314C155.341 64.0256 154.953 64.6111 154.678 65.3876C154.415 66.1523 154.284 67.0842 154.284 68.1833C154.284 69.8201 154.582 71.0865 155.18 71.9826C155.777 72.8667 156.619 73.3087 157.707 73.3087ZM167.149 67.9683C166.349 67.9683 165.686 67.6994 165.16 67.1618C164.646 66.6122 164.389 65.8297 164.389 64.8142C164.389 63.7867 164.646 63.0041 165.16 62.4665C165.686 61.9289 166.349 61.6601 167.149 61.6601C167.962 61.6601 168.625 61.9289 169.138 62.4665C169.652 63.0041 169.909 63.7867 169.909 64.8142C169.909 65.8297 169.652 66.6122 169.138 67.1618C168.625 67.6994 167.962 67.9683 167.149 67.9683ZM167.149 66.8572C167.639 66.8572 168.003 66.6779 168.242 66.3195C168.493 65.9611 168.619 65.4593 168.619 64.8142C168.619 64.169 168.493 63.6672 168.242 63.3088C168.003 62.9504 167.639 62.7712 167.149 62.7712C166.671 62.7712 166.307 62.9504 166.056 63.3088C165.805 63.6672 165.68 64.169 165.68 64.8142C165.68 65.4593 165.805 65.9611 166.056 66.3195C166.307 66.6779 166.671 66.8572 167.149 66.8572ZM174.425 74.6707C173.625 74.6707 172.962 74.4019 172.436 73.8643C171.922 73.3147 171.665 72.5321 171.665 71.5166C171.665 70.4891 171.922 69.7066 172.436 69.169C172.962 68.6313 173.625 68.3625 174.425 68.3625C175.237 68.3625 175.901 68.6313 176.414 69.169C176.928 69.7066 177.185 70.4891 177.185 71.5166C177.185 72.5321 176.928 73.3147 176.414 73.8643C175.901 74.4019 175.237 74.6707 174.425 74.6707ZM174.425 73.5596C174.915 73.5596 175.279 73.3804 175.518 73.022C175.769 72.6636 175.895 72.1618 175.895 71.5166C175.895 70.8715 175.769 70.3697 175.518 70.0113C175.279 69.6528 174.915 69.4736 174.425 69.4736C173.947 69.4736 173.583 69.6528 173.332 70.0113C173.081 70.3697 172.956 70.8715 172.956 71.5166C172.956 72.1618 173.081 72.6636 173.332 73.022C173.583 73.3804 173.947 73.5596 174.425 73.5596ZM165.68 74.5273L174.461 61.8034H175.895L167.113 74.5273H165.68Z" fill="#BABABA"/>
</g>
<rect x="0.582609" y="35.5826" width="266.841" height="89.3426" rx="13.4" fill="#FBFBFB"/>
<rect x="0.582609" y="35.5826" width="266.841" height="89.3426" rx="13.4" stroke="#E3E3E3" stroke-width="1.16522"/>
<rect x="18.1086" y="50.6303" width="59.2472" height="59.2472" rx="29.6236" fill="#E8F5E3"/>
<rect x="18.1086" y="50.6303" width="59.2472" height="59.2472" rx="29.6236" stroke="#BFD8A5" stroke-width="1.26058"/>
<path d="M47.8945 90.7557C57.3522 90.4431 59.8717 77.1246 54.8999 68.0703C52.0275 74.0724 45.4002 73.1698 41.6924 77.7415C40.5932 79.0962 39.7461 80.9366 39.7461 82.9216C39.7461 85.5722 41.0554 87.9169 43.0606 89.3354" stroke="#6A9E56" stroke-width="2.52116" stroke-linecap="round" stroke-linejoin="round"/>
<path d="M37.2268 92.4406C37.2268 92.4406 44.955 90.3145 49.8326 81.5156" stroke="#6A9E56" stroke-width="2.52116" stroke-linecap="round" stroke-linejoin="round"/>
<path d="M92.3264 73.3203V59.0001H97.6712C99.3116 59.0001 100.589 59.3968 101.503 60.1901C102.418 60.97 102.875 62.0591 102.875 63.4575C102.875 64.3853 102.666 65.1921 102.25 65.8779C101.833 66.5502 101.234 67.0678 100.455 67.4309C99.6881 67.7805 98.7604 67.9553 97.6712 67.9553H94.5046V73.3203H92.3264ZM94.5046 65.9787H97.6107C98.5923 65.9787 99.3385 65.7703 99.8495 65.3535C100.36 64.9232 100.616 64.2912 100.616 63.4575C100.616 62.6373 100.36 62.0255 99.8495 61.6221C99.3385 61.2053 98.5923 60.9969 97.6107 60.9969H94.5046V65.9787ZM107.498 73.3203C106.799 73.3203 106.234 73.1388 105.804 72.7757C105.374 72.4127 105.159 71.8345 105.159 71.0412V59.0001H107.297V70.8395C107.297 71.0815 107.357 71.263 107.478 71.3841C107.613 71.5051 107.801 71.5656 108.043 71.5656H108.89V73.3203H107.498ZM113.99 73.5623C112.888 73.5623 112 73.3069 111.328 72.7959C110.656 72.285 110.319 71.5656 110.319 70.6378C110.319 69.71 110.595 68.9906 111.146 68.4797C111.711 67.9553 112.578 67.5788 113.748 67.3502L117.439 66.6443C117.439 65.8106 117.244 65.1921 116.854 64.7887C116.478 64.3719 115.906 64.1635 115.14 64.1635C114.454 64.1635 113.91 64.3181 113.506 64.6274C113.116 64.9232 112.854 65.3669 112.72 65.9585L110.501 65.8173C110.703 64.7416 111.207 63.8945 112.014 63.276C112.82 62.6575 113.862 62.3482 115.14 62.3482C116.592 62.3482 117.695 62.7382 118.448 63.518C119.201 64.2845 119.577 65.3669 119.577 66.7653V70.9403C119.577 71.1958 119.624 71.3773 119.718 71.4849C119.812 71.579 119.96 71.6261 120.162 71.6261H120.545V73.3203C120.478 73.3338 120.37 73.3472 120.223 73.3607C120.075 73.3741 119.92 73.3808 119.759 73.3808C119.288 73.3808 118.891 73.3069 118.569 73.159C118.246 73.0111 117.997 72.769 117.822 72.4329C117.661 72.0833 117.58 71.6194 117.58 71.0412L117.802 71.142C117.695 71.6126 117.459 72.0295 117.096 72.3925C116.747 72.7556 116.303 73.0447 115.765 73.2598C115.227 73.4615 114.636 73.5623 113.99 73.5623ZM114.353 71.8681C114.985 71.8681 115.53 71.7471 115.987 71.5051C116.458 71.2496 116.814 70.9 117.056 70.4563C117.311 70.0126 117.439 69.5083 117.439 68.9436V68.2578L114.313 68.8629C113.667 68.9839 113.21 69.1789 112.941 69.4478C112.672 69.7033 112.538 70.0327 112.538 70.4361C112.538 70.8933 112.699 71.2496 113.022 71.5051C113.345 71.7471 113.789 71.8681 114.353 71.8681ZM122.443 73.3203V62.5903H124.399L124.48 65.4543L124.218 65.3131C124.339 64.6139 124.567 64.0492 124.903 63.6189C125.24 63.1886 125.65 62.8726 126.134 62.6709C126.618 62.4558 127.142 62.3482 127.707 62.3482C128.514 62.3482 129.179 62.5298 129.704 62.8928C130.241 63.2424 130.645 63.7265 130.914 64.345C131.196 64.9501 131.337 65.6425 131.337 66.4224V73.3203H129.199V67.0678C129.199 66.4359 129.132 65.9047 128.998 65.4745C128.863 65.0442 128.641 64.7148 128.332 64.4862C128.023 64.2576 127.619 64.1433 127.122 64.1433C126.369 64.1433 125.757 64.392 125.287 64.8896C124.816 65.3871 124.581 66.1132 124.581 67.0678V73.3203H122.443ZM137.661 73.3203C136.639 73.3203 135.886 73.085 135.402 72.6144C134.918 72.1438 134.676 71.411 134.676 70.4159V60.0691H136.814V70.2546C136.814 70.7521 136.922 71.095 137.137 71.2832C137.352 71.4715 137.682 71.5656 138.125 71.5656H139.658V73.3203H137.661ZM133.043 64.345V62.5903H139.658V64.345H133.043ZM146.36 73.3203V62.5903H148.316L148.377 65.2526L148.135 65.1719C148.256 64.5803 148.464 64.0761 148.76 63.6592C149.069 63.2424 149.446 62.9197 149.889 62.6911C150.333 62.4625 150.817 62.3482 151.342 62.3482C152.256 62.3482 153.002 62.6104 153.58 63.1348C154.159 63.6458 154.522 64.3517 154.67 65.2526H154.327C154.448 64.6206 154.649 64.0962 154.932 63.6794C155.228 63.2491 155.604 62.9197 156.061 62.6911C156.518 62.4625 157.036 62.3482 157.614 62.3482C158.367 62.3482 159.006 62.5096 159.53 62.8323C160.068 63.1416 160.472 63.5987 160.741 64.2038C161.023 64.8089 161.164 65.5484 161.164 66.4224V73.3203H159.026V66.9468C159.026 66.019 158.858 65.3198 158.522 64.8492C158.186 64.3786 157.675 64.1433 156.989 64.1433C156.545 64.1433 156.155 64.2576 155.819 64.4862C155.483 64.7148 155.221 65.0442 155.033 65.4745C154.858 65.9047 154.77 66.4224 154.77 67.0275V73.3203H152.733V67.0275C152.733 66.1132 152.579 65.4072 152.269 64.9097C151.974 64.3988 151.463 64.1433 150.737 64.1433C150.279 64.1433 149.883 64.2576 149.547 64.4862C149.224 64.7148 148.968 65.0509 148.78 65.4946C148.592 65.9249 148.498 66.4359 148.498 67.0275V73.3203H146.36ZM166.832 73.5623C165.73 73.5623 164.842 73.3069 164.17 72.7959C163.497 72.285 163.161 71.5656 163.161 70.6378C163.161 69.71 163.437 68.9906 163.988 68.4797C164.553 67.9553 165.42 67.5788 166.59 67.3502L170.281 66.6443C170.281 65.8106 170.086 65.1921 169.696 64.7887C169.32 64.3719 168.748 64.1635 167.982 64.1635C167.296 64.1635 166.751 64.3181 166.348 64.6274C165.958 64.9232 165.696 65.3669 165.561 65.9585L163.343 65.8173C163.545 64.7416 164.049 63.8945 164.856 63.276C165.662 62.6575 166.704 62.3482 167.982 62.3482C169.434 62.3482 170.537 62.7382 171.29 63.518C172.042 64.2845 172.419 65.3669 172.419 66.7653V70.9403C172.419 71.1958 172.466 71.3773 172.56 71.4849C172.654 71.579 172.802 71.6261 173.004 71.6261H173.387V73.3203C173.32 73.3338 173.212 73.3472 173.064 73.3607C172.917 73.3741 172.762 73.3808 172.601 73.3808C172.13 73.3808 171.733 73.3069 171.411 73.159C171.088 73.0111 170.839 72.769 170.664 72.4329C170.503 72.0833 170.422 71.6194 170.422 71.0412L170.644 71.142C170.537 71.6126 170.301 72.0295 169.938 72.3925C169.589 72.7556 169.145 73.0447 168.607 73.2598C168.069 73.4615 167.478 73.5623 166.832 73.5623ZM167.195 71.8681C167.827 71.8681 168.372 71.7471 168.829 71.5051C169.299 71.2496 169.656 70.9 169.898 70.4563C170.153 70.0126 170.281 69.5083 170.281 68.9436V68.2578L167.155 68.8629C166.509 68.9839 166.052 69.1789 165.783 69.4478C165.514 69.7033 165.38 70.0327 165.38 70.4361C165.38 70.8933 165.541 71.2496 165.864 71.5051C166.187 71.7471 166.63 71.8681 167.195 71.8681ZM178.532 73.3203C177.511 73.3203 176.758 73.085 176.274 72.6144C175.789 72.1438 175.547 71.411 175.547 70.4159V60.0691H177.685V70.2546C177.685 70.7521 177.793 71.095 178.008 71.2832C178.223 71.4715 178.553 71.5656 178.996 71.5656H180.529V73.3203H178.532ZM173.914 64.345V62.5903H180.529V64.345H173.914ZM185.047 73.3203C184.025 73.3203 183.272 73.085 182.788 72.6144C182.304 72.1438 182.062 71.411 182.062 70.4159V60.0691H184.2V70.2546C184.2 70.7521 184.308 71.095 184.523 71.2832C184.738 71.4715 185.067 71.5656 185.511 71.5656H187.044V73.3203H185.047ZM180.428 64.345V62.5903H187.044V64.345H180.428ZM193.229 73.5623C192.194 73.5623 191.293 73.3338 190.527 72.8766C189.774 72.4194 189.189 71.7673 188.772 70.9202C188.355 70.0731 188.147 69.0848 188.147 67.9553C188.147 66.8258 188.355 65.8442 188.772 65.0106C189.189 64.1635 189.767 63.5113 190.507 63.0542C191.26 62.5835 192.147 62.3482 193.169 62.3482C194.15 62.3482 195.011 62.5768 195.751 63.034C196.49 63.4777 197.062 64.1231 197.465 64.9702C197.882 65.8173 198.09 66.8393 198.09 68.036V68.5805H190.386C190.439 69.6293 190.715 70.4159 191.213 70.9403C191.723 71.4647 192.402 71.7269 193.25 71.7269C193.895 71.7269 194.419 71.579 194.823 71.2832C195.24 70.9874 195.535 70.5907 195.71 70.0932L197.929 70.2344C197.646 71.2294 197.088 72.0362 196.255 72.6547C195.435 73.2598 194.426 73.5623 193.229 73.5623ZM190.386 66.967H195.811C195.744 66.0123 195.468 65.3064 194.984 64.8492C194.514 64.392 193.908 64.1635 193.169 64.1635C192.416 64.1635 191.791 64.4055 191.293 64.8896C190.809 65.3602 190.507 66.0527 190.386 66.967ZM200.172 73.3203V62.5903H202.128L202.209 65.4341L202.027 65.3736C202.175 64.4055 202.471 63.6996 202.915 63.2558C203.372 62.8121 203.984 62.5903 204.75 62.5903H205.779V64.5063H204.75C204.212 64.5063 203.762 64.5937 203.399 64.7685C203.036 64.9433 202.76 65.2123 202.572 65.5753C202.397 65.9384 202.31 66.409 202.31 66.9872V73.3203H200.172Z" fill="#161616"/>
<path d="M96.4005 100.248C95.2173 100.248 94.2492 99.9594 93.4962 99.3812C92.7566 98.7896 92.2524 98.05 91.9835 97.1626L93.8189 97.0214C93.9802 97.5055 94.2761 97.882 94.7063 98.1509C95.1366 98.4198 95.7013 98.5543 96.4005 98.5543C97.5973 98.5543 98.5116 98.0769 99.1436 97.1223C99.789 96.1541 100.118 94.6011 100.132 92.4632L100.555 92.5438C100.219 93.4447 99.7016 94.1439 99.0024 94.6414C98.3032 95.1255 97.4897 95.3675 96.5619 95.3675C95.6341 95.3675 94.8139 95.1591 94.1012 94.7423C93.3886 94.3254 92.8239 93.7405 92.407 92.9876C92.0036 92.2346 91.802 91.3606 91.802 90.3655C91.802 89.3167 92.0171 88.4159 92.4474 87.6629C92.8776 86.8964 93.4626 86.3115 94.2021 85.9081C94.9551 85.4913 95.8156 85.2829 96.7838 85.2829C97.9805 85.2829 98.9553 85.5585 99.7083 86.1098C100.475 86.6611 101.039 87.4343 101.403 88.4293C101.766 89.4109 101.947 90.574 101.947 91.9186C101.947 93.1153 101.853 94.2246 101.665 95.2465C101.476 96.255 101.167 97.1357 100.737 97.8887C100.307 98.6282 99.7352 99.2064 99.0226 99.6232C98.3234 100.04 97.4493 100.248 96.4005 100.248ZM96.6829 93.6531C97.3418 93.6531 97.92 93.5254 98.4175 93.2699C98.915 93.0144 99.3049 92.6447 99.5873 92.1606C99.8831 91.6765 100.031 91.0916 100.031 90.4059C100.031 89.747 99.8966 89.1621 99.6276 88.6512C99.3722 88.1268 99.0024 87.7166 98.5183 87.4208C98.0343 87.125 97.4561 86.9771 96.7838 86.9771C96.1249 86.9771 95.5602 87.125 95.0895 87.4208C94.6189 87.7032 94.2559 88.0999 94.0004 88.6108C93.7449 89.1218 93.6172 89.7067 93.6172 90.3655C93.6172 91.0379 93.7449 91.6228 94.0004 92.1203C94.2693 92.6043 94.6324 92.9808 95.0895 93.2498C95.5467 93.5187 96.0778 93.6531 96.6829 93.6531ZM108.704 103.193C107.938 103.193 107.245 103.065 106.627 102.81C106.008 102.555 105.491 102.191 105.074 101.721C104.657 101.25 104.375 100.706 104.227 100.087L106.002 99.9661C106.163 100.464 106.445 100.854 106.849 101.136C107.266 101.432 107.884 101.58 108.704 101.58C109.672 101.58 110.412 101.385 110.923 100.995C111.447 100.605 111.709 100.02 111.709 99.24V97.5055C111.454 98.0702 111.044 98.5207 110.479 98.8568C109.914 99.193 109.282 99.361 108.583 99.361C107.682 99.361 106.876 99.1392 106.163 98.6955C105.464 98.2517 104.912 97.6399 104.509 96.8601C104.119 96.0802 103.924 95.186 103.924 94.1775C103.924 93.1556 104.119 92.2615 104.509 91.495C104.899 90.7151 105.437 90.1033 106.123 89.6596C106.822 89.2159 107.615 88.994 108.503 88.994C109.256 88.994 109.928 89.1688 110.52 89.5184C111.125 89.868 111.548 90.3387 111.79 90.9303V89.2361H113.404V99.1997C113.404 100.033 113.215 100.746 112.839 101.338C112.462 101.943 111.925 102.4 111.225 102.709C110.526 103.032 109.686 103.193 108.704 103.193ZM108.664 97.7475C109.578 97.7475 110.311 97.4315 110.862 96.7995C111.414 96.1541 111.696 95.2801 111.709 94.1775C111.723 93.438 111.602 92.806 111.346 92.2816C111.104 91.7438 110.748 91.3337 110.277 91.0513C109.82 90.7555 109.282 90.6076 108.664 90.6076C107.723 90.6076 106.99 90.9303 106.465 91.5757C105.955 92.2077 105.699 93.075 105.699 94.1775C105.699 95.2801 105.961 96.1541 106.486 96.7995C107.024 97.4315 107.75 97.7475 108.664 97.7475Z" fill="#161616"/>
<path d="M120.456 102.144L126.406 84.7988H128.02L122.07 102.144H120.456ZM137.771 99.9258V89.3167H134.786V87.8242H135.996C136.521 87.8242 136.938 87.757 137.247 87.6225C137.569 87.4881 137.798 87.2595 137.933 86.9368C138.067 86.6141 138.134 86.1703 138.134 85.6056H139.506V99.9258H137.771ZM148.275 100.248C147.119 100.248 146.117 99.946 145.27 99.3409C144.423 98.7358 143.764 97.8752 143.293 96.7592C142.836 95.6432 142.608 94.3187 142.608 92.7859C142.608 91.253 142.836 89.9285 143.293 88.8125C143.764 87.683 144.423 86.8158 145.27 86.2107C146.117 85.5922 147.119 85.2829 148.275 85.2829C149.445 85.2829 150.453 85.5922 151.301 86.2107C152.148 86.8158 152.8 87.6763 153.257 88.7923C153.728 89.9084 153.963 91.2395 153.963 92.7859C153.963 94.3187 153.728 95.6432 153.257 96.7592C152.8 97.8752 152.148 98.7358 151.301 99.3409C150.453 99.946 149.445 100.248 148.275 100.248ZM148.275 98.5543C149.512 98.5543 150.467 98.0568 151.139 97.0617C151.811 96.0533 152.148 94.628 152.148 92.7859C152.148 91.5488 151.993 90.5 151.684 89.6395C151.388 88.7655 150.951 88.1066 150.373 87.6629C149.808 87.2057 149.109 86.9771 148.275 86.9771C147.455 86.9771 146.756 87.2057 146.178 87.6629C145.613 88.1066 145.176 88.7655 144.867 89.6395C144.571 90.5 144.423 91.5488 144.423 92.7859C144.423 94.628 144.759 96.0533 145.431 97.0617C146.104 98.0568 147.052 98.5543 148.275 98.5543ZM158.902 92.5438C158.001 92.5438 157.255 92.2413 156.663 91.6362C156.085 91.0177 155.796 90.137 155.796 88.994C155.796 87.8377 156.085 86.9569 156.663 86.3519C157.255 85.7468 158.001 85.4442 158.902 85.4442C159.817 85.4442 160.563 85.7468 161.141 86.3519C161.719 86.9569 162.008 87.8377 162.008 88.994C162.008 90.137 161.719 91.0177 161.141 91.6362C160.563 92.2413 159.817 92.5438 158.902 92.5438ZM158.902 91.2933C159.454 91.2933 159.864 91.0916 160.133 90.6883C160.415 90.2849 160.556 89.7201 160.556 88.994C160.556 88.2679 160.415 87.7032 160.133 87.2998C159.864 86.8964 159.454 86.6947 158.902 86.6947C158.364 86.6947 157.954 86.8964 157.672 87.2998C157.39 87.7032 157.248 88.2679 157.248 88.994C157.248 89.7201 157.39 90.2849 157.672 90.6883C157.954 91.0916 158.364 91.2933 158.902 91.2933ZM167.091 100.087C166.19 100.087 165.444 99.7846 164.852 99.1795C164.274 98.561 163.985 97.6803 163.985 96.5373C163.985 95.381 164.274 94.5002 164.852 93.8952C165.444 93.2901 166.19 92.9876 167.091 92.9876C168.005 92.9876 168.752 93.2901 169.33 93.8952C169.908 94.5002 170.197 95.381 170.197 96.5373C170.197 97.6803 169.908 98.561 169.33 99.1795C168.752 99.7846 168.005 100.087 167.091 100.087ZM167.091 98.8366C167.642 98.8366 168.052 98.6349 168.321 98.2316C168.604 97.8282 168.745 97.2634 168.745 96.5373C168.745 95.8112 168.604 95.2465 168.321 94.8431C168.052 94.4397 167.642 94.238 167.091 94.238C166.553 94.238 166.143 94.4397 165.861 94.8431C165.578 95.2465 165.437 95.8112 165.437 96.5373C165.437 97.2634 165.578 97.8282 165.861 98.2316C166.143 98.6349 166.553 98.8366 167.091 98.8366ZM157.248 99.9258L167.131 85.6056H168.745L158.862 99.9258H157.248Z" fill="#989898"/>
<defs>
<clipPath id="clip0_542_8816">
<rect width="24.5461" height="24.5461" fill="white" transform="translate(46.1958 109.727)"/>
</clipPath>
<clipPath id="clip1_542_8816">
<rect width="26.8815" height="26.8815" fill="white" transform="translate(37.7939 90.7949)"/>
</clipPath>
</defs>
</svg>
