<svg width="32" height="32" viewBox="0 0 32 32" fill="none" xmlns="http://www.w3.org/2000/svg">
<g clip-path="url(#clip0_1_4)">
<rect width="32" height="32" fill="white"/>
<rect width="32" height="32" fill="#CFFD7E"/>
<g clip-path="url(#clip1_1_4)">
<rect x="4.33331" y="4.5" width="23.1667" height="23.1667" rx="11.5833" fill="#E1FE02"/>
<rect width="38.3333" height="38.3333" transform="translate(-3.16669 -3.16666)" fill="#CFFD7E"/>
<path d="M19.0369 8.44128C19.0369 10.1186 17.6772 11.4783 15.9999 11.4783C14.3226 11.4783 12.9629 10.1186 12.9629 8.44128C12.9629 6.76401 14.3226 5.40431 15.9999 5.40431C17.6772 5.40431 19.0369 6.76401 19.0369 8.44128Z" fill="#161616" stroke="#161616" stroke-width="0.134977"/>
<path d="M19.0369 15.9997C19.0369 17.677 17.6772 19.0367 15.9999 19.0367C14.3226 19.0367 12.9629 17.677 12.9629 15.9997C12.9629 14.3225 14.3226 12.9628 15.9999 12.9628C17.6772 12.9628 19.0369 14.3225 19.0369 15.9997Z" fill="#161616" stroke="#161616" stroke-width="0.134977"/>
<path d="M12.5581 12.2205C12.5581 13.8978 11.1984 15.2575 9.52115 15.2575C7.84387 15.2575 6.48418 13.8978 6.48418 12.2205C6.48418 10.5432 7.84387 9.18352 9.52115 9.18352C11.1984 9.18352 12.5581 10.5432 12.5581 12.2205Z" fill="#161616" stroke="#161616" stroke-width="0.134977"/>
<path d="M12.5581 19.7789C12.5581 21.4562 11.1984 22.8159 9.52115 22.8159C7.84387 22.8159 6.48418 21.4562 6.48418 19.7789C6.48418 18.1017 7.84387 16.742 9.52115 16.742C11.1984 16.742 12.5581 18.1017 12.5581 19.7789Z" fill="#161616" stroke="#161616" stroke-width="0.134977"/>
<path d="M25.5159 12.2205C25.5159 13.8978 24.1562 15.2575 22.4789 15.2575C20.8016 15.2575 19.4419 13.8978 19.4419 12.2205C19.4419 10.5432 20.8016 9.18352 22.4789 9.18352C24.1562 9.18352 25.5159 10.5432 25.5159 12.2205Z" fill="#161616" stroke="#161616" stroke-width="0.134977"/>
<path d="M25.5159 19.7789C25.5159 21.4562 24.1562 22.8159 22.4789 22.8159C20.8016 22.8159 19.4419 21.4562 19.4419 19.7789C19.4419 18.1017 20.8016 16.742 22.4789 16.742C24.1562 16.742 25.5159 18.1017 25.5159 19.7789Z" fill="#161616" stroke="#161616" stroke-width="0.134977"/>
<path d="M19.0369 23.5582C19.0369 25.2354 17.6772 26.5951 15.9999 26.5951C14.3226 26.5951 12.9629 25.2354 12.9629 23.5582C12.9629 21.8809 14.3226 20.5212 15.9999 20.5212C17.6772 20.5212 19.0369 21.8809 19.0369 23.5582Z" fill="#161616" stroke="#161616" stroke-width="0.134977"/>
</g>
</g>
<defs>
<clipPath id="clip0_1_4">
<rect width="32" height="32" fill="white"/>
</clipPath>
<clipPath id="clip1_1_4">
<rect width="28.6667" height="28.6667" fill="white" transform="translate(1.66669 1.66666)"/>
</clipPath>
</defs>
</svg>
