<svg width="32" height="32" viewBox="0 0 32 32" fill="none" xmlns="http://www.w3.org/2000/svg">
<g clip-path="url(#clip0_1_4)">
<rect width="32" height="32" fill="white"/>
<rect width="32" height="32" fill="#FBFBFB"/>
<path d="M12.4209 19.1951L16.6344 27.1507L19.3387 25.6386L19.3375 25.6366L14.6167 17.9654L12.4209 19.1951ZM22.6901 8.30593L18.3882 16.232L20.5253 17.4908L25.3576 9.88883L22.6901 8.30593ZM15.3842 4.84952L12.7091 6.39059L12.7106 6.39292L17.4312 14.0639L19.5683 12.8051L15.3842 4.84952ZM11.5227 14.4796L6.6315 22.0521L9.33606 23.6396H9.35553L13.6893 15.7679L11.5227 14.4796ZM16.937 20.6859L25.9826 21.069V17.9497V17.9322L16.9955 18.1974L16.937 20.6859ZM15.0522 11.3141L6.00627 10.9311L5.97695 14.0386H5.99457H5.99471L15.0522 13.8321V11.3141Z" fill="#161616" stroke="#161616" stroke-width="0.0233569"/>
</g>
<defs>
<clipPath id="clip0_1_4">
<rect width="32" height="32" fill="white"/>
</clipPath>
</defs>
</svg>
