<svg width="192" height="192" viewBox="0 0 192 192" fill="none" xmlns="http://www.w3.org/2000/svg">
<g clip-path="url(#clip0_1_20)">
<rect width="192" height="192" fill="white"/>
<rect width="192" height="192" fill="#CFFD7E"/>
<g clip-path="url(#clip1_1_20)">
<rect x="26" y="27" width="139" height="139" rx="69.5" fill="#E1FE02"/>
<rect width="230" height="230" transform="translate(-19 -19)" fill="#CFFD7E"/>
<path d="M114.221 50.6476C114.221 60.7113 106.063 68.8695 95.9995 68.8695C85.9359 68.8695 77.7777 60.7113 77.7777 50.6476C77.7777 40.584 85.9359 32.4258 95.9995 32.4258C106.063 32.4258 114.221 40.584 114.221 50.6476Z" fill="#161616" stroke="#161616" stroke-width="0.80986"/>
<path d="M114.221 95.9983C114.221 106.062 106.063 114.22 95.9995 114.22C85.9359 114.22 77.7777 106.062 77.7777 95.9983C77.7777 85.9346 85.9359 77.7765 95.9995 77.7765C106.063 77.7765 114.221 85.9346 114.221 95.9983Z" fill="#161616" stroke="#161616" stroke-width="0.80986"/>
<path d="M75.3486 73.323C75.3486 83.3866 67.1904 91.5448 57.1268 91.5448C47.0631 91.5448 38.9049 83.3866 38.9049 73.323C38.9049 63.2593 47.0631 55.1011 57.1268 55.1011C67.1904 55.1011 75.3486 63.2593 75.3486 73.323Z" fill="#161616" stroke="#161616" stroke-width="0.80986"/>
<path d="M75.3486 118.674C75.3486 128.737 67.1904 136.895 57.1268 136.895C47.0631 136.895 38.9049 128.737 38.9049 118.674C38.9049 108.61 47.0631 100.452 57.1268 100.452C67.1904 100.452 75.3486 108.61 75.3486 118.674Z" fill="#161616" stroke="#161616" stroke-width="0.80986"/>
<path d="M153.095 73.323C153.095 83.3866 144.937 91.5448 134.874 91.5448C124.81 91.5448 116.652 83.3866 116.652 73.323C116.652 63.2593 124.81 55.1011 134.874 55.1011C144.937 55.1011 153.095 63.2593 153.095 73.323Z" fill="#161616" stroke="#161616" stroke-width="0.80986"/>
<path d="M153.095 118.674C153.095 128.737 144.937 136.895 134.874 136.895C124.81 136.895 116.652 128.737 116.652 118.674C116.652 108.61 124.81 100.452 134.874 100.452C144.937 100.452 153.095 108.61 153.095 118.674Z" fill="#161616" stroke="#161616" stroke-width="0.80986"/>
<path d="M114.221 141.349C114.221 151.413 106.063 159.571 95.9995 159.571C85.9359 159.571 77.7777 151.413 77.7777 141.349C77.7777 131.285 85.9359 123.127 95.9995 123.127C106.063 123.127 114.221 131.285 114.221 141.349Z" fill="#161616" stroke="#161616" stroke-width="0.80986"/>
</g>
</g>
<defs>
<clipPath id="clip0_1_20">
<rect width="192" height="192" fill="white"/>
</clipPath>
<clipPath id="clip1_1_20">
<rect width="172" height="172" fill="white" transform="translate(10 10)"/>
</clipPath>
</defs>
</svg>
