<svg width="192" height="192" viewBox="0 0 192 192" fill="none" xmlns="http://www.w3.org/2000/svg">
<g clip-path="url(#clip0_1_20)">
<rect width="192" height="192" fill="white"/>
<rect width="192" height="192" fill="#FBFBFB"/>
<path d="M99.8062 162.904L116.032 153.831L116.025 153.82L87.7005 107.792L74.5252 115.171L99.8062 162.904ZM136.141 49.8355L110.329 97.3919L123.152 104.945L152.146 59.3329L136.141 49.8355ZM117.41 76.8307L92.3052 29.0971L76.2548 38.3435L76.2634 38.3575L104.587 84.3836L117.41 76.8307ZM69.136 86.8778L39.7891 132.313L56.0164 141.837H56.1332L82.1361 94.6076L69.136 86.8778ZM155.896 107.593L101.973 109.184L101.622 124.115L155.896 126.414V107.698V107.593ZM90.3136 67.8846L36.0377 65.5863L35.8618 84.2315H35.9675H35.9683L90.3136 82.9924V67.8846Z" fill="#161616" stroke="#161616" stroke-width="0.140142"/>
</g>
<defs>
<clipPath id="clip0_1_20">
<rect width="192" height="192" fill="white"/>
</clipPath>
</defs>
</svg>
